<svg xmlns="http://www.w3.org/2000/svg" viewBox="0 0 43.26 50.7"><defs><style>.safeOrder-1{fill:#444;}</style></defs><g id="safeOrder_2" data-name="safeOrder 2"><g id="safeOrder_1" data-name="safeOrder 1"><path class="safeOrder-1" d="M43.23,16.25c0,1.92.06,3.84,0,5.75A30.94,30.94,0,0,1,34.9,42.36a31.64,31.64,0,0,1-9.58,7.17,20.27,20.27,0,0,1-2.72,1,4.88,4.88,0,0,1-3.23-.4,28.44,28.44,0,0,1-8.1-5A31.49,31.49,0,0,1,2.64,33.66,27.76,27.76,0,0,1,.14,23.43C0,18.89,0,14.35,0,9.8c0-.64.27-.93,1-1.15,2.46-.8,4.94-1.54,7.37-2.43A75,75,0,0,0,20.71.28a1.61,1.61,0,0,1,1.83,0A83.87,83.87,0,0,0,42.07,8.58c1,.28,1.19.53,1.19,1.58v6.09Zm-2,.75h-.07c0-1.95,0-3.9,0-5.85,0-.46-.11-.66-.57-.79A84.19,84.19,0,0,1,22.14,2.52a.89.89,0,0,0-1,0A82.44,82.44,0,0,1,3,10.27c-.9.27-.91.27-.89,1.22,0,4.1,0,8.2.2,12.29A25.88,25.88,0,0,0,5.14,34a29.56,29.56,0,0,0,7.57,9.62A27.6,27.6,0,0,0,20,48.11a3.68,3.68,0,0,0,3.16.07c.46-.21.94-.39,1.4-.62a30.07,30.07,0,0,0,13-12.36A27.43,27.43,0,0,0,41,23.73c.17-2.23.18-4.48.26-6.73"/><path class="safeOrder-1" d="M18.21,27.09c.19-.23.28-.39.41-.52l10.09-10.1a3.47,3.47,0,0,1,5.39,4.37c-.16.2-.32.38-.49.56q-6.37,6.38-12.76,12.76a3.46,3.46,0,0,1-4.41.72,4.15,4.15,0,0,1-.81-.64c-2-2-4.06-4-6.07-6.06a3.47,3.47,0,0,1,.21-5.31,3.34,3.34,0,0,1,4.21,0c1.19,1.05,2.28,2.21,3.4,3.32.26.26.49.54.83.91m0,6.28a6.07,6.07,0,0,0,1.09-.66q6.48-6.43,12.93-12.92a1.94,1.94,0,0,0,.23-.26,1.31,1.31,0,0,0-.7-2.06,1.42,1.42,0,0,0-1.5.51q-5.49,5.5-11,11c-.77.78-1.27.78-2,0-1.42-1.43-2.84-2.86-4.27-4.27A1.33,1.33,0,1,0,11,26.6q3.06,3.11,6.16,6.16a5,5,0,0,0,1,.61"/><path class="safeOrder-1" d="M4.2,14.94c0-.61,0-1.22,0-1.83a1.18,1.18,0,0,1,.93-1.29l5.45-1.93c.75-.26,1.34-.06,1.57.55s-.07,1.18-.81,1.46c-1.49.54-3,1.09-4.47,1.59a.65.65,0,0,0-.53.77c0,.89,0,1.78,0,2.67A1.07,1.07,0,0,1,5.68,18a.87.87,0,0,1-1-.17,2,2,0,0,1-.41-1,16.85,16.85,0,0,1,0-1.88"/><path class="safeOrder-1" d="M33.74,34.05a5.1,5.1,0,0,1,.93.72,1,1,0,0,1-.07,1.16c-.52.72-1,1.45-1.58,2.15a29.73,29.73,0,0,1-4.84,4.74,1.07,1.07,0,1,1-1.36-1.63,29.06,29.06,0,0,0,4.45-4.35c.52-.66,1-1.37,1.51-2a7,7,0,0,1,1-.77"/><path class="safeOrder-1" d="M23.69,43.88a1.12,1.12,0,0,1,1.1-1.1,1.08,1.08,0,0,1,1.06,1,1.16,1.16,0,0,1-1.14,1.13,1,1,0,0,1-1-1.06"/><path class="safeOrder-1" d="M14.15,10.63a1.09,1.09,0,0,1-1-1.08,1.07,1.07,0,1,1,2.14,0,1.13,1.13,0,0,1-1.12,1"/></g></g></svg>