<svg xmlns="http://www.w3.org/2000/svg" viewBox="0 0 51.77 43.48"><defs><style>.shipping-1{fill:none;stroke:#444;stroke-linecap:round;stroke-linejoin:round;stroke-width:2px;}</style></defs><g id="shipping_2" data-name="shipping 2"><g id="shipping_1" data-name="shipping 1"><path class="shipping-1" d="M45.24,35.56v4.7A2.22,2.22,0,0,1,43,42.48H3.22A2.22,2.22,0,0,1,1,40.26v-37A2.21,2.21,0,0,1,3.22,1H43a2.21,2.21,0,0,1,2.22,2.22V21.74"/><polygon class="shipping-1" points="31.42 15.48 27.62 13.07 23.82 15.48 20.01 13.07 16.21 15.48 16.21 1 31.42 1 31.42 15.48"/><line class="shipping-1" x1="9.3" y1="18.97" x2="9.3" y2="25.89"/><line class="shipping-1" x1="7.91" y1="35.56" x2="18.97" y2="35.56"/><line class="shipping-1" x1="7.91" y1="31.42" x2="24.5" y2="31.42"/><path class="shipping-1" d="M46.62,31.42H39.71V34.8a.7.7,0,0,1-1.13.54L30.41,28.7a2.74,2.74,0,0,1,0-4.25l8.17-6.63a.69.69,0,0,1,1.13.54v3.38h5.53"/><path class="shipping-1" d="M45.24,17.59h2.2a3.33,3.33,0,0,1,3.33,3.34v7.15a3.34,3.34,0,0,1-3.33,3.34h-2.2"/></g></g></svg>