<svg xmlns="http://www.w3.org/2000/svg" xmlns:xlink="http://www.w3.org/1999/xlink" viewBox="0 0 39.96 40.09"><defs><style>.favicon-1{fill:url(#New_Gradient_Swatch_3);}.favicon-2{fill:#fff;}</style><linearGradient id="New_Gradient_Swatch_3" x1="-0.76" y1="20.05" x2="202.93" y2="20.05" gradientUnits="userSpaceOnUse"><stop offset="0.24" stop-color="#d31e33"/><stop offset="1" stop-color="#df8925"/></linearGradient></defs><g id="favicon_2" data-name="favicon 2"><g id="favicon_1" data-name="favicon 1"><path class="favicon-1" d="M6,0H40a0,0,0,0,1,0,0V34.09a6,6,0,0,1-6,6H0a0,0,0,0,1,0,0V6A6,6,0,0,1,6,0Z"/><path class="favicon-2" d="M7.74,20.05V15.11A13.54,13.54,0,0,1,8,12.44,6.14,6.14,0,0,1,9.15,10a5.55,5.55,0,0,1,2.23-1.7A8.87,8.87,0,0,1,15,7.65h16.1a.93.93,0,0,1,.86.69,4.14,4.14,0,0,1,.28,1.57,4.06,4.06,0,0,1-.28,1.54c-.19.47-.48.71-.86.71H14.92a2.88,2.88,0,0,0-2,.6A3,3,0,0,0,12.28,15v1.44C8.5,17.4,7.74,20.05,7.74,20.05Zm0,5.51a14.08,14.08,0,0,1,.3-3,6.14,6.14,0,0,1,1.11-2.46,5.46,5.46,0,0,1,2.23-1.7,8.87,8.87,0,0,1,3.6-.63h16.1a.93.93,0,0,1,.86.69,4.05,4.05,0,0,1,.28,1.56,4.11,4.11,0,0,1-.28,1.55.93.93,0,0,1-.86.7H14.92a2.84,2.84,0,0,0-2,.63,3.24,3.24,0,0,0-.67,2.38l0,.36V31.3c0,.38-.24.66-.71.85a4.11,4.11,0,0,1-1.55.29,4.05,4.05,0,0,1-1.56-.29c-.46-.19-.69-.47-.69-.85Z"/></g></g></svg>