<svg xmlns="http://www.w3.org/2000/svg" xmlns:xlink="http://www.w3.org/1999/xlink" viewBox="0 0 205.31 63"><defs><style>.casas-1{fill:url(#New_Gradient_Swatch_7);}.casas-2{fill:#fff;}.casas-3{fill:#474c4d;}</style><linearGradient id="New_Gradient_Swatch_7" x1="1.03" y1="28.62" x2="199.9" y2="28.62" gradientUnits="userSpaceOnUse"><stop offset="0" stop-color="#876745"/><stop offset="1" stop-color="#b6805e"/></linearGradient></defs><g id="casas_2" data-name="casas 2"><g id="casas_1" data-name="casas 1"><path class="casas-1" d="M172.41,8.69h32.9a0,0,0,0,1,0,0v33a6.83,6.83,0,0,1-6.83,6.83h-32.9a0,0,0,0,1,0,0v-33A6.83,6.83,0,0,1,172.41,8.69Z"/><path class="casas-1" d="M131,8.69h32.9a0,0,0,0,1,0,0v33a6.83,6.83,0,0,1-6.83,6.83H124.2a0,0,0,0,1,0,0v-33A6.83,6.83,0,0,1,131,8.69Z"/><path class="casas-1" d="M89.64,8.69h32.9a0,0,0,0,1,0,0v33a6.83,6.83,0,0,1-6.83,6.83H82.81a0,0,0,0,1,0,0v-33A6.83,6.83,0,0,1,89.64,8.69Z"/><path class="casas-1" d="M48.23,8.69h32.9a0,0,0,0,1,0,0v33a6.83,6.83,0,0,1-6.83,6.83H41.4a0,0,0,0,1,0,0v-33A6.83,6.83,0,0,1,48.23,8.69Z"/><path class="casas-1" d="M6.83,8.69h32.9a0,0,0,0,1,0,0v33a6.83,6.83,0,0,1-6.83,6.83H0a0,0,0,0,1,0,0v-33A6.83,6.83,0,0,1,6.83,8.69Z"/><path class="casas-2" d="M193.86,16.5v0a3.71,3.71,0,0,1,7.42,0v0a3.71,3.71,0,0,1-7.42,0Zm7,0v0a3.32,3.32,0,1,0-6.64,0v0a3.32,3.32,0,1,0,6.64,0Zm-4.82-2.05h1.74a1.6,1.6,0,0,1,1.17.41,1.09,1.09,0,0,1,.32.82v0a1.17,1.17,0,0,1-.9,1.17l1,1.46h-.89L197.62,17h-.81v1.34h-.74Zm1.7,1.9c.49,0,.77-.24.77-.61v0c0-.39-.28-.61-.77-.61h-1v1.24Z"/><path class="casas-2" d="M7.7,28.62V23.71A13.21,13.21,0,0,1,8,21.06,6.09,6.09,0,0,1,9.1,18.61a5.53,5.53,0,0,1,2.21-1.69,8.78,8.78,0,0,1,3.58-.62h16a.91.91,0,0,1,.85.68,4.26,4.26,0,0,1,0,3.09c-.19.47-.47.71-.85.71H14.83a2.84,2.84,0,0,0-1.95.59,3,3,0,0,0-.67,2.27v1.44C8.45,26,7.7,28.62,7.7,28.62Zm0,5.48a14,14,0,0,1,.29-3A6.16,6.16,0,0,1,9.1,28.7,5.6,5.6,0,0,1,11.31,27a8.77,8.77,0,0,1,3.58-.63h16c.38,0,.66.23.85.69A4,4,0,0,1,32,28.63a4.06,4.06,0,0,1-.29,1.54c-.19.47-.47.7-.85.7H14.83a2.8,2.8,0,0,0-2,.63,3.18,3.18,0,0,0-.67,2.36l0,.36V39.8c0,.38-.24.66-.71.85a4,4,0,0,1-1.53.28,4.05,4.05,0,0,1-1.56-.28.91.91,0,0,1-.68-.85Z"/><path class="casas-2" d="M47.32,28.66a17.14,17.14,0,0,1,.88-5.84,9.48,9.48,0,0,1,2.61-4,10.81,10.81,0,0,1,4.32-2.27,22,22,0,0,1,6-.73,23.11,23.11,0,0,1,6.11.73,11.7,11.7,0,0,1,4.51,2.27,9.54,9.54,0,0,1,2.79,4,15.91,15.91,0,0,1,1,5.84,15.76,15.76,0,0,1-1,5.82,9.47,9.47,0,0,1-2.79,4,11.8,11.8,0,0,1-4.51,2.24,24,24,0,0,1-6.11.71,22.89,22.89,0,0,1-6-.71,10.89,10.89,0,0,1-4.32-2.24,9.41,9.41,0,0,1-2.61-4A17,17,0,0,1,47.32,28.66Zm4.45,0a10,10,0,0,0,.64,3.78A6.57,6.57,0,0,0,54.26,35a7.57,7.57,0,0,0,2.94,1.49,14.82,14.82,0,0,0,3.94.48,15.75,15.75,0,0,0,4-.48A8.42,8.42,0,0,0,68.28,35a6.7,6.7,0,0,0,2-2.58A9,9,0,0,0,71,28.66a9.09,9.09,0,0,0-.72-3.79,6.75,6.75,0,0,0-2-2.62,8.79,8.79,0,0,0-3.13-1.52,15.3,15.3,0,0,0-4-.49,14.4,14.4,0,0,0-3.94.49,7.9,7.9,0,0,0-2.94,1.52,6.64,6.64,0,0,0-1.85,2.62A10,10,0,0,0,51.77,28.66Z"/><path class="casas-2" d="M149.58,27.85,147.73,24a5.61,5.61,0,0,0-1.64-2.16,3,3,0,0,0-3.9,0A5.54,5.54,0,0,0,140.57,24l-7.68,16a1.73,1.73,0,0,1-1.15.84,6.6,6.6,0,0,1-1.84.26,7.38,7.38,0,0,1-.82,0,3.76,3.76,0,0,1-.73-.15,1.7,1.7,0,0,1-.54-.27.47.47,0,0,1-.21-.37.49.49,0,0,1,.06-.27L135.4,24a30.54,30.54,0,0,1,1.87-3.39,13,13,0,0,1,2-2.42,7,7,0,0,1,2.22-1.45,7.16,7.16,0,0,1,2.69-.47,7,7,0,0,1,2.63.47A7.34,7.34,0,0,1,149,18.22a12.56,12.56,0,0,1,2,2.41A29.54,29.54,0,0,1,152.87,24l2.85,5.89C153.71,27.5,149.58,27.85,149.58,27.85Zm.81,1.68A6.58,6.58,0,0,1,153,30a7.09,7.09,0,0,1,2.18,1.48,14.32,14.32,0,0,1,2,2.42,34.23,34.23,0,0,1,1.94,3.31l1.38,2.6a.49.49,0,0,1,.06.27.47.47,0,0,1-.21.37,1.7,1.7,0,0,1-.54.27,3.82,3.82,0,0,1-.75.15,7.39,7.39,0,0,1-.8,0,6.25,6.25,0,0,1-1.84-.26,1.73,1.73,0,0,1-1.15-.84L154,37.26a8.2,8.2,0,0,0-1.62-2.34,2.73,2.73,0,0,0-1.94-.91h-10a.92.92,0,0,1-.85-.71,4,4,0,0,1-.29-1.53,4.05,4.05,0,0,1,.29-1.56.91.91,0,0,1,.85-.68Z"/><path class="casas-2" d="M180.74,40.93a8.81,8.81,0,0,1-3.58-.62A5.53,5.53,0,0,1,175,38.62a6,6,0,0,1-1.1-2.45,13.89,13.89,0,0,1-.3-2.94V17.4a.9.9,0,0,1,.68-.84,4.26,4.26,0,0,1,1.56-.26,4.2,4.2,0,0,1,1.53.26c.47.18.71.46.71.84V33.47a3.2,3.2,0,0,0,.67,2.36,2.81,2.81,0,0,0,2,.62h15.53c.37,0,.66.24.85.71a4,4,0,0,1,.28,1.53,4.05,4.05,0,0,1-.28,1.56.92.92,0,0,1-.85.68Z"/><path class="casas-2" d="M91.85,28.62V23.71a13.27,13.27,0,0,1,.3-2.65,6,6,0,0,1,1.1-2.45,5.53,5.53,0,0,1,2.21-1.69A8.81,8.81,0,0,1,99,16.3h16a.91.91,0,0,1,.85.68,4.26,4.26,0,0,1,0,3.09c-.19.47-.47.71-.85.71H99a2.85,2.85,0,0,0-2,.59,3,3,0,0,0-.67,2.27v1.44C92.6,26,91.85,28.62,91.85,28.62Zm0,5.48a14,14,0,0,1,.3-3,6,6,0,0,1,1.1-2.45A5.6,5.6,0,0,1,95.46,27,8.8,8.8,0,0,1,99,26.39h16c.38,0,.66.23.85.69a4,4,0,0,1,.29,1.55,4.06,4.06,0,0,1-.29,1.54c-.19.47-.47.7-.85.7H99a2.81,2.81,0,0,0-2,.63,3.18,3.18,0,0,0-.67,2.36l0,.36V39.8c0,.38-.24.66-.71.85a4,4,0,0,1-1.53.28,4.05,4.05,0,0,1-1.56-.28.92.92,0,0,1-.68-.85Z"/><path class="casas-3" d="M177,59.64v0a3.32,3.32,0,0,1,3.41-3.38,3.39,3.39,0,0,1,2.18.67.7.7,0,0,1-.43,1.26.76.76,0,0,1-.43-.14,2.19,2.19,0,0,0-1.33-.46,1.94,1.94,0,0,0-1.9,2v0a1.94,1.94,0,0,0,1.9,2.05,2.07,2.07,0,0,0,1.42-.51.69.69,0,0,1,.43-.16.67.67,0,0,1,.43,1.18A3.45,3.45,0,0,1,177,59.64Z"/><path class="casas-3" d="M184.4,62l2.28-5.14a.9.9,0,0,1,.84-.57h.09a.89.89,0,0,1,.83.57L190.71,62a.71.71,0,0,1,.08.29.68.68,0,0,1-.68.69.72.72,0,0,1-.69-.49l-.44-1H186.1l-.45,1.08a.72.72,0,0,1-.67.44.66.66,0,0,1-.66-.67A1,1,0,0,1,184.4,62Zm4-1.81L187.54,58l-.9,2.15Z"/><path class="casas-3" d="M192.3,62.2a.67.67,0,0,1,.4-1.21.71.71,0,0,1,.41.13,2.74,2.74,0,0,0,1.67.59c.59,0,.95-.23.95-.61v0c0-.37-.23-.55-1.32-.83-1.32-.34-2.17-.7-2.17-2v0a2.05,2.05,0,0,1,2.29-2,3.8,3.8,0,0,1,2.07.58.65.65,0,0,1,.32.57.66.66,0,0,1-.67.66.79.79,0,0,1-.37-.1,2.69,2.69,0,0,0-1.37-.44c-.55,0-.84.25-.84.57v0c0,.43.28.57,1.41.86,1.33.34,2.07.82,2.07,2v0c0,1.29-1,2-2.39,2A4.25,4.25,0,0,1,192.3,62.2Z"/><path class="casas-3" d="M198.55,62l2.28-5.14a.9.9,0,0,1,.84-.57h.09a.89.89,0,0,1,.83.57L204.86,62a.71.71,0,0,1,.08.29.68.68,0,0,1-.68.69.72.72,0,0,1-.69-.49l-.44-1h-2.88l-.45,1.08a.72.72,0,0,1-.67.44.66.66,0,0,1-.66-.67A1,1,0,0,1,198.55,62Zm4-1.81L201.69,58l-.91,2.15Z"/><path class="casas-3" d="M126.1,0a1.91,1.91,0,0,1,1.29.49.11.11,0,0,1,0,.15l-.14.15s-.09,0-.14,0a1.6,1.6,0,0,0-1-.4,1.51,1.51,0,0,0-1.48,1.53,1.51,1.51,0,0,0,1.48,1.53,1.55,1.55,0,0,0,1-.4.1.1,0,0,1,.13,0l.16.14a.11.11,0,0,1,0,.15,1.82,1.82,0,0,1-1.29.51,1.89,1.89,0,0,1-1.91-1.9A1.91,1.91,0,0,1,126.1,0Z"/><path class="casas-3" d="M129.94,0a1.91,1.91,0,0,1,1.91,1.92,1.91,1.91,0,0,1-3.82,0A1.9,1.9,0,0,1,129.94,0Zm0,3.45a1.54,1.54,0,1,0-1.54-1.53A1.54,1.54,0,0,0,129.94,3.45Z"/><path class="casas-3" d="M132.24.19a.1.1,0,0,1,.09-.14h.21a.11.11,0,0,1,.09.06l1.32,3h0l1.32-3a.12.12,0,0,1,.09-.06h.21a.1.1,0,0,1,.09.14l-1.61,3.57a.1.1,0,0,1-.09.06h-.06a.11.11,0,0,1-.09-.06Z"/><path class="casas-3" d="M136.37.15a.11.11,0,0,1,.11-.1h2.09a.1.1,0,0,1,.1.1V.31a.1.1,0,0,1-.1.1h-1.79V1.7h1.53a.11.11,0,0,1,.1.11V2a.1.1,0,0,1-.1.1h-1.53V3.41h1.79a.1.1,0,0,1,.1.1v.16a.1.1,0,0,1-.1.1h-2.09a.11.11,0,0,1-.11-.1Z"/><path class="casas-3" d="M139.62.15a.11.11,0,0,1,.11-.1h1.37a1.14,1.14,0,0,1,1.16,1.13,1.2,1.2,0,0,1-.79,1.09l.73,1.35a.1.1,0,0,1-.09.15h-.27a.1.1,0,0,1-.09,0l-.7-1.41h-1V3.67a.1.1,0,0,1-.1.1h-.2a.11.11,0,0,1-.11-.1ZM141.07,2a.78.78,0,0,0,.77-.77.78.78,0,0,0-.77-.75h-1V2Z"/><path class="casas-3" d="M145.16,1.78h0L145,1.64a1.07,1.07,0,0,1-.37-.78A.87.87,0,0,1,145.6,0a.82.82,0,0,1,.89.82c0,.47-.47.83-.78,1l.87.87a2.1,2.1,0,0,0,.22-.94c0-.12,0-.12.12-.12h.13c.11,0,.1.08.1.12A2.46,2.46,0,0,1,146.83,3l.51.51c.07.07.11.12,0,.25l-.07,0a.14.14,0,0,1-.22,0l-.45-.47a1.5,1.5,0,0,1-1.16.53.94.94,0,0,1-1-1A1.27,1.27,0,0,1,145.16,1.78Zm.3,1.71a1.16,1.16,0,0,0,.91-.45l-1-1a1.06,1.06,0,0,0-.59.84A.65.65,0,0,0,145.46,3.49Zm.66-2.66a.52.52,0,0,0-.56-.52.53.53,0,0,0-.55.56.85.85,0,0,0,.34.61l.12.11C145.71,1.45,146.12,1.21,146.12.83Z"/><path class="casas-3" d="M149.45.15a.1.1,0,0,1,.1-.1h2.09a.11.11,0,0,1,.11.1V.31a.11.11,0,0,1-.11.1h-1.78V1.86h1.52a.1.1,0,0,1,.1.1v.16a.1.1,0,0,1-.1.1h-1.52V3.67a.11.11,0,0,1-.1.1h-.21a.1.1,0,0,1-.1-.1Z"/><path class="casas-3" d="M152.58.15a.1.1,0,0,1,.1-.1h.21a.11.11,0,0,1,.1.1V3.41h1.53a.11.11,0,0,1,.1.1v.16a.11.11,0,0,1-.1.1h-1.84a.1.1,0,0,1-.1-.1Z"/><path class="casas-3" d="M156.87,0a1.9,1.9,0,0,1,1.91,1.92,1.91,1.91,0,0,1-3.81,0A1.9,1.9,0,0,1,156.87,0Zm0,3.45a1.54,1.54,0,1,0-1.53-1.53A1.54,1.54,0,0,0,156.87,3.45Z"/><path class="casas-3" d="M161.34,0a1.91,1.91,0,0,1,1.91,1.92,1.91,1.91,0,0,1-3.82,0A1.91,1.91,0,0,1,161.34,0Zm0,3.45a1.55,1.55,0,0,0,1.54-1.53,1.54,1.54,0,1,0-3.08,0A1.54,1.54,0,0,0,161.34,3.45Z"/><path class="casas-3" d="M164.17.15a.1.1,0,0,1,.1-.1h1.37a1.14,1.14,0,0,1,1.16,1.13A1.19,1.19,0,0,1,166,2.27l.72,1.35a.1.1,0,0,1-.09.15h-.27a.08.08,0,0,1-.08,0l-.71-1.41h-1V3.67a.11.11,0,0,1-.1.1h-.21a.1.1,0,0,1-.1-.1ZM165.62,2a.77.77,0,0,0,.76-.77.77.77,0,0,0-.76-.75h-1V2Z"/><path class="casas-3" d="M167.78.15a.11.11,0,0,1,.1-.1h.22a.11.11,0,0,1,.1.1V3.67a.11.11,0,0,1-.1.1h-.22a.11.11,0,0,1-.1-.1Z"/><path class="casas-3" d="M169.39.1a.1.1,0,0,1,.1-.1h.13L172,3h0V.15a.1.1,0,0,1,.1-.1h.18a.1.1,0,0,1,.1.1V3.73a.09.09,0,0,1-.1.09h-.09l-2.44-3h0V3.67a.1.1,0,0,1-.1.1h-.18a.11.11,0,0,1-.1-.1Z"/><path class="casas-3" d="M175.25,0a1.9,1.9,0,0,1,1.28.49.1.1,0,0,1,0,.15l-.15.15s-.08,0-.14,0a1.6,1.6,0,0,0-1-.42,1.49,1.49,0,0,0-1.47,1.53,1.5,1.5,0,0,0,1.47,1.53,2,2,0,0,0,1-.22V2.46h-.61a.09.09,0,0,1-.1-.09v-.2a.09.09,0,0,1,.1-.1h.92a.1.1,0,0,1,.09.1V3.39a.12.12,0,0,1,0,.08,2.61,2.61,0,0,1-1.31.35,1.91,1.91,0,1,1,0-3.82Z"/><path class="casas-3" d="M178.64,3.21l.08-.1c.05-.07.11-.11.19,0a1.38,1.38,0,0,0,.89.41.65.65,0,0,0,.72-.59c0-.36-.32-.58-.93-.84s-.94-.49-.94-1.1A1,1,0,0,1,179.78,0a1.75,1.75,0,0,1,.91.27.12.12,0,0,1,0,.18l-.06.1a.12.12,0,0,1-.19,0,1.47,1.47,0,0,0-.69-.24c-.57,0-.74.36-.74.58s.28.56.72.75c.72.29,1.18.56,1.18,1.18a1.06,1.06,0,0,1-1.15.95,1.72,1.72,0,0,1-1.12-.43A.12.12,0,0,1,178.64,3.21Z"/><path class="casas-3" d="M181.82.15a.1.1,0,0,1,.1-.1h.21a.11.11,0,0,1,.1.1V3.67a.11.11,0,0,1-.1.1h-.21a.1.1,0,0,1-.1-.1Z"/><path class="casas-3" d="M183.42.1a.1.1,0,0,1,.1-.1h.13l2.4,3h0V.15a.1.1,0,0,1,.1-.1h.18a.11.11,0,0,1,.11.1V3.73a.1.1,0,0,1-.11.09h-.09l-2.44-3h0V3.67a.11.11,0,0,1-.1.1h-.19a.11.11,0,0,1-.1-.1Z"/><path class="casas-3" d="M189.28,0a1.92,1.92,0,0,1,1.29.49.11.11,0,0,1,0,.15l-.14.15s-.09,0-.14,0a1.6,1.6,0,0,0-1-.4,1.52,1.52,0,0,0-1.49,1.53,1.52,1.52,0,0,0,1.49,1.53,1.55,1.55,0,0,0,1-.4.1.1,0,0,1,.13,0l.16.14a.11.11,0,0,1,0,.15,1.82,1.82,0,0,1-1.29.51,1.91,1.91,0,1,1,0-3.82Z"/><path class="casas-3" d="M191.49.15a.11.11,0,0,1,.11-.1h2.09a.1.1,0,0,1,.1.1V.31a.1.1,0,0,1-.1.1H191.9V1.7h1.53a.11.11,0,0,1,.1.11V2a.1.1,0,0,1-.1.1H191.9V3.41h1.79a.1.1,0,0,1,.1.1v.16a.1.1,0,0,1-.1.1H191.6a.11.11,0,0,1-.11-.1Z"/><path class="casas-3" d="M196.24,1.13l-.47.1a.09.09,0,0,1-.11-.07l0-.26a.1.1,0,0,1,0-.1l.76-.64h.37a.1.1,0,0,1,.1.1V3.67a.1.1,0,0,1-.1.1h-.45a.1.1,0,0,1-.1-.1Z"/><path class="casas-3" d="M198.18,3.31a1.89,1.89,0,0,0,1.17-1,1.34,1.34,0,0,1-.61.15,1.08,1.08,0,0,1-1.08-1.15,1.22,1.22,0,0,1,1.2-1.22,1.3,1.3,0,0,1,1.26,1.47,2.45,2.45,0,0,1-1.77,2.31.09.09,0,0,1-.14-.07l-.13-.31C198.06,3.4,198.08,3.34,198.18,3.31Zm1.3-1.85c0-.36-.19-.78-.62-.78a.62.62,0,0,0,0,1.24A.64.64,0,0,0,199.48,1.46Z"/><path class="casas-3" d="M202.45,0a.11.11,0,0,1,.15.08l.12.31c0,.06,0,.12-.09.15-.25.08-1,.44-1.17,1a1.49,1.49,0,0,1,.61-.15,1.09,1.09,0,0,1,1.08,1.16A1.21,1.21,0,0,1,202,3.82a1.3,1.3,0,0,1-1.27-1.46A2.49,2.49,0,0,1,202.45,0Zm.1,2.56a.61.61,0,0,0-.61-.62.66.66,0,0,0-.62.46c0,.36.19.78.62.78A.62.62,0,0,0,202.55,2.6Z"/><path class="casas-3" d="M204.14,1.13l-.47.1a.09.09,0,0,1-.11-.07l0-.26a.13.13,0,0,1,0-.1l.76-.64h.37a.1.1,0,0,1,.1.1V3.67a.1.1,0,0,1-.1.1h-.45a.1.1,0,0,1-.1-.1Z"/></g></g></svg>