<svg xmlns="http://www.w3.org/2000/svg" xmlns:xlink="http://www.w3.org/1999/xlink" viewBox="0 0 206.51 48.65"><defs><style>.fofal-1{fill:url(#New_Gradient_Swatch_3);}.fofal-2{fill:#fff;}.fofal-3{fill:#474c4d;}</style><linearGradient id="New_Gradient_Swatch_3" x1="-0.76" y1="28.6" x2="202.93" y2="28.6" gradientUnits="userSpaceOnUse"><stop offset="0.24" stop-color="#d31e33"/><stop offset="1" stop-color="#df8925"/></linearGradient></defs><g id="fofal_2" data-name="fofal 2"><g id="fofal_1" data-name="fofal 1"><path class="fofal-1" d="M172.55,8.56h34a0,0,0,0,1,0,0V42.65a6,6,0,0,1-6,6h-34a0,0,0,0,1,0,0V14.56a6,6,0,0,1,6-6Z"/><path class="fofal-1" d="M130.92,8.56h34a0,0,0,0,1,0,0V42.65a6,6,0,0,1-6,6h-34a0,0,0,0,1,0,0V14.56a6,6,0,0,1,6-6Z"/><path class="fofal-1" d="M89.29,8.56h34a0,0,0,0,1,0,0V42.65a6,6,0,0,1-6,6h-34a0,0,0,0,1,0,0V14.56a6,6,0,0,1,6-6Z"/><path class="fofal-1" d="M47.65,8.56h34a0,0,0,0,1,0,0V42.65a6,6,0,0,1-6,6h-34a0,0,0,0,1,0,0V14.56a6,6,0,0,1,6-6Z"/><path class="fofal-1" d="M6,8.56H40a0,0,0,0,1,0,0V42.65a6,6,0,0,1-6,6H0a0,0,0,0,1,0,0V14.56a6,6,0,0,1,6-6Z"/><path class="fofal-2" d="M195,16.42v0a3.73,3.73,0,0,1,7.46,0v0a3.73,3.73,0,0,1-7.46,0Zm7.07,0v0a3.34,3.34,0,1,0-6.68,0v0a3.34,3.34,0,1,0,6.68,0Zm-4.84-2.06H199a1.64,1.64,0,0,1,1.18.41,1.09,1.09,0,0,1,.32.82v0a1.17,1.17,0,0,1-.91,1.18l1.06,1.47h-.89l-.95-1.35H198v1.35h-.74Zm1.71,1.9c.48,0,.77-.23.77-.61v0c0-.39-.29-.6-.77-.6h-1v1.23Z"/><path class="fofal-3" d="M127.12,0a1.87,1.87,0,0,1,1.29.5.1.1,0,0,1,0,.15l-.14.14a.08.08,0,0,1-.14,0,1.59,1.59,0,0,0-1-.41,1.52,1.52,0,0,0-1.49,1.54,1.51,1.51,0,0,0,1.49,1.54,1.6,1.6,0,0,0,1-.4.09.09,0,0,1,.12,0l.16.14a.1.1,0,0,1,0,.15,1.84,1.84,0,0,1-1.3.52,1.93,1.93,0,1,1,0-3.85Z"/><path class="fofal-3" d="M131,0a1.92,1.92,0,0,1,1.92,1.93,1.92,1.92,0,0,1-3.84,0A1.92,1.92,0,0,1,131,0Zm0,3.47a1.55,1.55,0,0,0,1.55-1.54,1.55,1.55,0,1,0-3.1,0A1.55,1.55,0,0,0,131,3.47Z"/><path class="fofal-3" d="M133.29.19a.1.1,0,0,1,.1-.14h.21a.11.11,0,0,1,.09.06l1.33,3h0l1.33-3a.12.12,0,0,1,.09-.06h.22a.1.1,0,0,1,.09.14l-1.63,3.6a.1.1,0,0,1-.09.06H135a.1.1,0,0,1-.09-.06Z"/><path class="fofal-3" d="M137.45.15a.11.11,0,0,1,.11-.1h2.1a.1.1,0,0,1,.1.1V.31a.1.1,0,0,1-.1.1h-1.79v1.3h1.53a.11.11,0,0,1,.1.11V2a.1.1,0,0,1-.1.1h-1.53V3.44h1.79a.09.09,0,0,1,.1.1v.15a.1.1,0,0,1-.1.1h-2.1a.11.11,0,0,1-.11-.1Z"/><path class="fofal-3" d="M140.72.15a.11.11,0,0,1,.1-.1h1.39a1.15,1.15,0,0,1,1.16,1.14,1.19,1.19,0,0,1-.79,1.09l.73,1.36a.1.1,0,0,1-.09.15H143s-.07,0-.08,0l-.72-1.41h-1V3.69a.1.1,0,0,1-.1.1h-.21a.11.11,0,0,1-.1-.1ZM142.18,2A.79.79,0,0,0,143,1.2a.78.78,0,0,0-.77-.76h-1V2Z"/><path class="fofal-3" d="M146.29,1.8v0l-.13-.13a1.07,1.07,0,0,1-.37-.78.87.87,0,0,1,.94-.87.82.82,0,0,1,.9.82c0,.48-.48.84-.79,1l.89.88a2.28,2.28,0,0,0,.21-.95c0-.12,0-.12.12-.12h.13c.11,0,.1.08.1.12A2.61,2.61,0,0,1,148,3l.51.51c.06.07.11.13,0,.25l-.06.06a.14.14,0,0,1-.22,0l-.46-.47a1.51,1.51,0,0,1-1.16.54,1,1,0,0,1-1-1A1.27,1.27,0,0,1,146.29,1.8Zm.3,1.72a1.19,1.19,0,0,0,.92-.46l-1-1a1.07,1.07,0,0,0-.6.85A.65.65,0,0,0,146.59,3.52Zm.67-2.69a.52.52,0,0,0-.56-.51.54.54,0,0,0-.56.56.83.83,0,0,0,.35.61l.11.11C146.84,1.46,147.26,1.22,147.26.83Z"/><path class="fofal-3" d="M150.61.15a.1.1,0,0,1,.1-.1h2.1a.11.11,0,0,1,.11.1V.31a.11.11,0,0,1-.11.1H151V1.88h1.53a.09.09,0,0,1,.1.1v.15a.1.1,0,0,1-.1.1H151V3.69a.11.11,0,0,1-.1.1h-.21a.1.1,0,0,1-.1-.1Z"/><path class="fofal-3" d="M153.75.15a.11.11,0,0,1,.1-.1h.21a.1.1,0,0,1,.1.1V3.44h1.54a.09.09,0,0,1,.1.1v.15a.1.1,0,0,1-.1.1h-1.85a.11.11,0,0,1-.1-.1Z"/><path class="fofal-3" d="M158.07,0a1.93,1.93,0,1,1,0,3.85,1.91,1.91,0,0,1-1.91-1.92A1.91,1.91,0,0,1,158.07,0Zm0,3.47a1.55,1.55,0,0,0,1.55-1.54,1.55,1.55,0,1,0-3.09,0A1.54,1.54,0,0,0,158.07,3.47Z"/><path class="fofal-3" d="M162.57,0a1.93,1.93,0,0,1,0,3.85,1.91,1.91,0,0,1-1.92-1.92A1.92,1.92,0,0,1,162.57,0Zm0,3.47a1.54,1.54,0,0,0,1.54-1.54,1.55,1.55,0,1,0-1.54,1.54Z"/><path class="fofal-3" d="M165.41.15a.1.1,0,0,1,.1-.1h1.39a1.15,1.15,0,0,1,1.16,1.14,1.19,1.19,0,0,1-.79,1.09L168,3.64a.1.1,0,0,1-.09.15h-.27s-.08,0-.09,0l-.71-1.41h-1V3.69a.11.11,0,0,1-.1.1h-.21a.1.1,0,0,1-.1-.1ZM166.87,2a.79.79,0,0,0,.77-.78.78.78,0,0,0-.77-.76h-1V2Z"/><path class="fofal-3" d="M169.05.15a.11.11,0,0,1,.1-.1h.21a.1.1,0,0,1,.1.1V3.69a.1.1,0,0,1-.1.1h-.21a.11.11,0,0,1-.1-.1Z"/><path class="fofal-3" d="M170.66.1a.1.1,0,0,1,.1-.1h.14l2.41,3h0V.15a.1.1,0,0,1,.1-.1h.18a.11.11,0,0,1,.11.1v3.6a.11.11,0,0,1-.11.1h-.09L171.06.79h0v2.9a.1.1,0,0,1-.1.1h-.19a.11.11,0,0,1-.1-.1Z"/><path class="fofal-3" d="M176.56,0a1.87,1.87,0,0,1,1.29.5.11.11,0,0,1,0,.15,1.06,1.06,0,0,0-.15.15c-.05,0-.08,0-.14,0a1.65,1.65,0,0,0-1-.42,1.51,1.51,0,0,0-1.48,1.54,1.52,1.52,0,0,0,1.48,1.54,2,2,0,0,0,1-.22V2.48h-.61a.09.09,0,0,1-.1-.1v-.2a.1.1,0,0,1,.1-.1h.92a.1.1,0,0,1,.1.1V3.41a.1.1,0,0,1,0,.08,2.62,2.62,0,0,1-1.32.36,1.93,1.93,0,1,1,0-3.85Z"/><path class="fofal-3" d="M180,3.23l.08-.1c0-.07.11-.11.19,0a1.43,1.43,0,0,0,.9.41.64.64,0,0,0,.71-.59c0-.37-.32-.59-.93-.84S180,1.56,180,1A1,1,0,0,1,181.12,0a1.75,1.75,0,0,1,.91.27.12.12,0,0,1,0,.18L182,.56a.12.12,0,0,1-.19,0,1.52,1.52,0,0,0-.7-.24c-.56,0-.73.36-.73.59s.27.56.72.75c.72.29,1.18.57,1.18,1.18a1.06,1.06,0,0,1-1.15,1A1.71,1.71,0,0,1,180,3.41.11.11,0,0,1,180,3.23Z"/><path class="fofal-3" d="M183.16.15a.11.11,0,0,1,.1-.1h.22a.11.11,0,0,1,.1.1V3.69a.11.11,0,0,1-.1.1h-.22a.11.11,0,0,1-.1-.1Z"/><path class="fofal-3" d="M184.78.1a.09.09,0,0,1,.1-.1H185l2.41,3h0V.15a.1.1,0,0,1,.1-.1h.19a.11.11,0,0,1,.1.1v3.6a.11.11,0,0,1-.1.1h-.1L185.17.79h0v2.9a.11.11,0,0,1-.11.1h-.18a.1.1,0,0,1-.1-.1Z"/><path class="fofal-3" d="M190.67,0A1.87,1.87,0,0,1,192,.5a.1.1,0,0,1,0,.15l-.14.14a.08.08,0,0,1-.14,0,1.59,1.59,0,0,0-1-.41,1.52,1.52,0,0,0-1.49,1.54,1.51,1.51,0,0,0,1.49,1.54,1.6,1.6,0,0,0,1-.4.09.09,0,0,1,.12,0l.17.14a.11.11,0,0,1,0,.15,1.84,1.84,0,0,1-1.3.52,1.93,1.93,0,1,1,0-3.85Z"/><path class="fofal-3" d="M192.9.15a.1.1,0,0,1,.1-.1h2.1a.11.11,0,0,1,.11.1V.31a.11.11,0,0,1-.11.1h-1.79v1.3h1.53a.1.1,0,0,1,.1.11V2a.09.09,0,0,1-.1.1h-1.53V3.44h1.79a.1.1,0,0,1,.11.1v.15a.11.11,0,0,1-.11.1H193a.1.1,0,0,1-.1-.1Z"/><path class="fofal-3" d="M197.67,1.13l-.47.1a.09.09,0,0,1-.11-.07l0-.26a.09.09,0,0,1,0-.09l.77-.65h.38a.1.1,0,0,1,.09.1V3.69a.1.1,0,0,1-.09.1h-.46a.1.1,0,0,1-.1-.1Z"/><path class="fofal-3" d="M199.62,3.33a1.9,1.9,0,0,0,1.18-1,1.49,1.49,0,0,1-.61.15A1.09,1.09,0,0,1,199.1,1.3,1.23,1.23,0,0,1,200.31.07a1.32,1.32,0,0,1,1.27,1.48,2.49,2.49,0,0,1-1.78,2.33.11.11,0,0,1-.15-.08l-.12-.31C199.5,3.42,199.52,3.37,199.62,3.33Zm1.32-1.86c0-.36-.2-.79-.63-.79a.62.62,0,0,0-.61.63.62.62,0,0,0,.62.62A.66.66,0,0,0,200.94,1.47Z"/><path class="fofal-3" d="M203.92,0a.11.11,0,0,1,.15.08l.12.31c0,.07,0,.13-.09.16a1.94,1.94,0,0,0-1.18,1,1.49,1.49,0,0,1,.61-.15,1.09,1.09,0,0,1,1.09,1.16,1.23,1.23,0,0,1-1.21,1.23,1.32,1.32,0,0,1-1.27-1.48A2.49,2.49,0,0,1,203.92,0Zm.1,2.57A.62.62,0,0,0,203.4,2a.66.66,0,0,0-.62.46c0,.37.2.79.63.79A.62.62,0,0,0,204,2.61Z"/><path class="fofal-3" d="M205.61,1.13l-.47.1a.08.08,0,0,1-.1-.07l0-.26a.12.12,0,0,1,0-.09l.77-.65h.37a.1.1,0,0,1,.1.1V3.69a.1.1,0,0,1-.1.1h-.45a.11.11,0,0,1-.11-.1Z"/><path class="fofal-2" d="M7.74,28.6V23.67A13.46,13.46,0,0,1,8,21a6.14,6.14,0,0,1,1.11-2.46,5.55,5.55,0,0,1,2.23-1.7,8.87,8.87,0,0,1,3.6-.63h16.1a.93.93,0,0,1,.86.69,4.05,4.05,0,0,1,.28,1.56A4.11,4.11,0,0,1,31.94,20c-.19.47-.48.71-.86.71H14.92a2.88,2.88,0,0,0-2,.6,3,3,0,0,0-.67,2.28V25C8.5,26,7.74,28.6,7.74,28.6Zm0,5.52a14,14,0,0,1,.3-3,6.12,6.12,0,0,1,1.11-2.47A5.53,5.53,0,0,1,11.38,27a8.69,8.69,0,0,1,3.6-.64h16.1a.94.94,0,0,1,.86.7,4.43,4.43,0,0,1,0,3.1c-.19.48-.48.71-.86.71H14.92a2.84,2.84,0,0,0-2,.63,3.21,3.21,0,0,0-.67,2.37l0,.37v5.61c0,.38-.24.67-.71.86A4.11,4.11,0,0,1,10,41a4.05,4.05,0,0,1-1.56-.28.93.93,0,0,1-.69-.86Z"/><path class="fofal-2" d="M47.59,28.65a17.36,17.36,0,0,1,.89-5.88,9.59,9.59,0,0,1,2.63-4,10.9,10.9,0,0,1,4.34-2.28,22.31,22.31,0,0,1,6-.74,23.32,23.32,0,0,1,6.14.74,11.77,11.77,0,0,1,4.54,2.28,9.74,9.74,0,0,1,2.81,4,16.13,16.13,0,0,1,1,5.88,16,16,0,0,1-1,5.86,9.64,9.64,0,0,1-2.81,4,11.73,11.73,0,0,1-4.54,2.25,23.77,23.77,0,0,1-6.14.73,22.73,22.73,0,0,1-6-.73,10.86,10.86,0,0,1-4.34-2.25,9.48,9.48,0,0,1-2.63-4A17.24,17.24,0,0,1,47.59,28.65Zm4.48,0a10,10,0,0,0,.64,3.8,6.71,6.71,0,0,0,1.87,2.6,7.67,7.67,0,0,0,3,1.5,14.92,14.92,0,0,0,4,.48,15.91,15.91,0,0,0,4-.48,8.69,8.69,0,0,0,3.15-1.5,6.8,6.8,0,0,0,2-2.6,9,9,0,0,0,.73-3.8,9.07,9.07,0,0,0-.73-3.82,6.9,6.9,0,0,0-2-2.63,8.73,8.73,0,0,0-3.15-1.53,15.45,15.45,0,0,0-4-.49,14.5,14.5,0,0,0-4,.49,7.71,7.71,0,0,0-3,1.53,6.82,6.82,0,0,0-1.87,2.63A10.18,10.18,0,0,0,52.07,28.65Z"/><path class="fofal-2" d="M150.45,27.84,148.6,24a5.8,5.8,0,0,0-1.66-2.18,3,3,0,0,0-3.92,0,5.64,5.64,0,0,0-1.63,2.18L133.67,40a1.75,1.75,0,0,1-1.16.84,6.32,6.32,0,0,1-1.85.27,7.38,7.38,0,0,1-.82,0,3.87,3.87,0,0,1-.74-.15,1.7,1.7,0,0,1-.54-.27.48.48,0,0,1-.21-.38.49.49,0,0,1,.06-.27l7.78-16a30,30,0,0,1,1.88-3.41,13.19,13.19,0,0,1,2-2.43,7.14,7.14,0,0,1,2.24-1.46,7.22,7.22,0,0,1,2.7-.48,7.14,7.14,0,0,1,2.65.48,7.3,7.3,0,0,1,2.25,1.46,13.09,13.09,0,0,1,2,2.42,29.93,29.93,0,0,1,1.87,3.36l2.87,5.93C154.61,27.48,150.45,27.84,150.45,27.84Zm.82,1.68a6.63,6.63,0,0,1,2.61.49,7.08,7.08,0,0,1,2.2,1.49,14.86,14.86,0,0,1,2,2.43A38.59,38.59,0,0,1,160,37.27l1.38,2.61a.49.49,0,0,1,.06.27.48.48,0,0,1-.21.38,1.7,1.7,0,0,1-.54.27A3.82,3.82,0,0,1,160,41a7.57,7.57,0,0,1-.81,0,6.32,6.32,0,0,1-1.85-.27,1.73,1.73,0,0,1-1.15-.84l-1.29-2.58a8.54,8.54,0,0,0-1.63-2.36,2.77,2.77,0,0,0-1.95-.91h-10c-.38,0-.67-.24-.86-.71a4.11,4.11,0,0,1-.28-1.55,4.05,4.05,0,0,1,.28-1.56.93.93,0,0,1,.86-.69Z"/><path class="fofal-2" d="M181.8,41a8.87,8.87,0,0,1-3.6-.63A5.53,5.53,0,0,1,176,38.67a6.18,6.18,0,0,1-1.11-2.47,14,14,0,0,1-.3-3V17.32a.9.9,0,0,1,.69-.84,4.25,4.25,0,0,1,1.56-.27,4.31,4.31,0,0,1,1.55.27c.47.18.71.46.71.84V33.48a3.22,3.22,0,0,0,.67,2.38,2.84,2.84,0,0,0,2,.63h15.62a.93.93,0,0,1,.86.7,4.15,4.15,0,0,1,.28,1.55,4.05,4.05,0,0,1-.28,1.56.93.93,0,0,1-.86.69Z"/><path class="fofal-2" d="M92.38,28.6V23.67a13.46,13.46,0,0,1,.3-2.67,6,6,0,0,1,1.12-2.46A5.59,5.59,0,0,1,96,16.84a8.87,8.87,0,0,1,3.6-.63h16.11c.38,0,.66.23.85.69a4.05,4.05,0,0,1,.29,1.56,4.11,4.11,0,0,1-.29,1.55c-.19.47-.47.71-.85.71H99.56a2.86,2.86,0,0,0-2,.6,3,3,0,0,0-.68,2.28V25C93.14,26,92.38,28.6,92.38,28.6Zm0,5.52a14,14,0,0,1,.3-3,6,6,0,0,1,1.12-2.47A5.57,5.57,0,0,1,96,27a8.69,8.69,0,0,1,3.6-.64h16.11c.38,0,.66.24.85.7a4.29,4.29,0,0,1,0,3.1c-.19.48-.47.71-.85.71H99.56a2.81,2.81,0,0,0-2,.63,3.21,3.21,0,0,0-.68,2.37l0,.37v5.61c0,.38-.24.67-.71.86a4.06,4.06,0,0,1-1.54.28,4.14,4.14,0,0,1-1.57-.28.93.93,0,0,1-.69-.86Z"/></g></g></svg>