<svg xmlns="http://www.w3.org/2000/svg" xmlns:xlink="http://www.w3.org/1999/xlink" viewBox="0 0 205 62.79"><defs><style>.logocomind-1{fill:url(#linear-gradient);}.logocomind-2{fill:url(#linear-gradient-2);}.logocomind-3{fill:#fff;}.logocomind-4{fill:#474c4d;}</style><linearGradient id="linear-gradient" y1="28.57" x2="199.06" y2="28.57" gradientUnits="userSpaceOnUse"><stop offset="0" stop-color="#3a3e3f"/><stop offset="1" stop-color="#717477"/></linearGradient><linearGradient id="linear-gradient-2" y1="28.57" x2="199.06" y2="28.57" xlink:href="#linear-gradient"/></defs><g id="logocomind_2" data-name="logocomind 2"><g id="logocomind_1" data-name="logocomind 1"><path class="logocomind-1" d="M7.14,8.67H39.67a0,0,0,0,1,0,0V41.33a7.14,7.14,0,0,1-7.14,7.14H0a0,0,0,0,1,0,0V15.82A7.14,7.14,0,0,1,7.14,8.67Z"/><path class="logocomind-2" d="M172.47,8.67H205a0,0,0,0,1,0,0V41.33a7.14,7.14,0,0,1-7.14,7.14H165.33a0,0,0,0,1,0,0V15.82A7.14,7.14,0,0,1,172.47,8.67Z"/><path class="logocomind-2" d="M131.15,8.67h32.53a0,0,0,0,1,0,0V41.33a7.14,7.14,0,0,1-7.14,7.14H124a0,0,0,0,1,0,0V15.82A7.14,7.14,0,0,1,131.15,8.67Z"/><path class="logocomind-2" d="M89.82,8.67h32.53a0,0,0,0,1,0,0V41.33a7.14,7.14,0,0,1-7.14,7.14H82.68a0,0,0,0,1,0,0V15.82A7.14,7.14,0,0,1,89.82,8.67Z"/><path class="logocomind-2" d="M48.48,8.67H81a0,0,0,0,1,0,0V41.33a7.14,7.14,0,0,1-7.14,7.14H41.34a0,0,0,0,1,0,0V15.82A7.14,7.14,0,0,1,48.48,8.67Z"/><path class="logocomind-3" d="M193.56,16.47v0a3.71,3.71,0,0,1,7.41,0v0a3.71,3.71,0,0,1-7.41,0Zm7,0v0a3.32,3.32,0,1,0-6.63,0v0a3.32,3.32,0,1,0,6.63,0Zm-4.81-2h1.73a1.64,1.64,0,0,1,1.18.41,1.12,1.12,0,0,1,.31.81v0a1.14,1.14,0,0,1-.9,1.16l1,1.47h-.88l-.94-1.35h-.81v1.35h-.74Zm1.7,1.89c.48,0,.77-.24.77-.6v0c0-.39-.29-.61-.77-.61h-1V16.3Z"/><path class="logocomind-3" d="M7.68,28.57v-4.9A13.18,13.18,0,0,1,8,21a6.09,6.09,0,0,1,1.11-2.45,5.48,5.48,0,0,1,2.2-1.68,8.8,8.8,0,0,1,3.58-.63h16c.38,0,.66.23.85.69A4,4,0,0,1,32,18.51,4,4,0,0,1,31.7,20c-.19.47-.47.7-.85.7h-16a2.83,2.83,0,0,0-2,.6,3,3,0,0,0-.67,2.27V25C8.43,25.94,7.68,28.57,7.68,28.57Zm0,5.47A13.79,13.79,0,0,1,8,31.11a6.09,6.09,0,0,1,1.11-2.45A5.39,5.39,0,0,1,11.29,27a8.8,8.8,0,0,1,3.58-.63h16c.38,0,.66.23.85.69A4,4,0,0,1,32,28.59a4,4,0,0,1-.29,1.53c-.19.47-.47.7-.85.7h-16a2.79,2.79,0,0,0-2,.63,3.17,3.17,0,0,0-.67,2.35l0,.36v5.58c0,.38-.24.66-.7.85a4.06,4.06,0,0,1-1.54.28,4,4,0,0,1-1.55-.28c-.46-.19-.69-.47-.69-.85Z"/><path class="logocomind-3" d="M47.24,28.62a17.32,17.32,0,0,1,.88-5.83,9.58,9.58,0,0,1,2.61-4A11,11,0,0,1,55,16.55a22.42,22.42,0,0,1,6-.73,23.45,23.45,0,0,1,6.1.73,11.79,11.79,0,0,1,4.5,2.27,9.72,9.72,0,0,1,2.79,4,15.86,15.86,0,0,1,1,5.83,15.75,15.75,0,0,1-1,5.81,9.69,9.69,0,0,1-2.79,3.94,11.6,11.6,0,0,1-4.5,2.23,23.47,23.47,0,0,1-6.1.72,22.45,22.45,0,0,1-6-.72,10.77,10.77,0,0,1-4.31-2.23,9.53,9.53,0,0,1-2.61-3.94A17.2,17.2,0,0,1,47.24,28.62Zm4.45,0a9.91,9.91,0,0,0,.64,3.77A6.57,6.57,0,0,0,54.18,35a7.73,7.73,0,0,0,2.93,1.49,14.82,14.82,0,0,0,3.94.48,15.72,15.72,0,0,0,4-.48A8.83,8.83,0,0,0,68.18,35a6.89,6.89,0,0,0,2-2.58,9.16,9.16,0,0,0,.71-3.77,9.22,9.22,0,0,0-.71-3.79,6.83,6.83,0,0,0-2-2.61,8.7,8.7,0,0,0-3.13-1.52,15.27,15.27,0,0,0-4-.49,14.4,14.4,0,0,0-3.94.49,7.64,7.64,0,0,0-2.93,1.52,6.54,6.54,0,0,0-1.85,2.61A10,10,0,0,0,51.69,28.62Z"/><path class="logocomind-3" d="M149.35,27.81,147.51,24a6,6,0,0,0-1.64-2.16,3.19,3.19,0,0,0-2-.73,3.14,3.14,0,0,0-1.92.7,5.63,5.63,0,0,0-1.63,2.16l-7.66,16a1.72,1.72,0,0,1-1.15.83,6.24,6.24,0,0,1-1.83.27,7.27,7.27,0,0,1-.82,0,3.87,3.87,0,0,1-.74-.15,1.76,1.76,0,0,1-.53-.27.48.48,0,0,1-.21-.37.49.49,0,0,1,.06-.27L135.19,24a29.46,29.46,0,0,1,1.87-3.38,13,13,0,0,1,2-2.42,7.21,7.21,0,0,1,2.23-1.44,7.11,7.11,0,0,1,2.68-.48,6.94,6.94,0,0,1,2.62.48,7.37,7.37,0,0,1,2.24,1.44,12.8,12.8,0,0,1,2,2.4,30.44,30.44,0,0,1,1.87,3.34l2.84,5.89C153.48,27.46,149.35,27.81,149.35,27.81Zm.81,1.67a6.58,6.58,0,0,1,2.6.49,7,7,0,0,1,2.17,1.48,14.63,14.63,0,0,1,2,2.41,37.85,37.85,0,0,1,1.94,3.31l1.37,2.6a.49.49,0,0,1,.06.27.47.47,0,0,1-.21.37,1.76,1.76,0,0,1-.53.27,3.82,3.82,0,0,1-.75.15,7.51,7.51,0,0,1-.8,0,6.25,6.25,0,0,1-1.84-.27,1.72,1.72,0,0,1-1.15-.83l-1.28-2.57a8.33,8.33,0,0,0-1.61-2.34,2.79,2.79,0,0,0-1.94-.91h-10c-.38,0-.66-.23-.85-.7a4.37,4.37,0,0,1,0-3.08c.19-.46.47-.69.85-.69Z"/><path class="logocomind-3" d="M180.47,40.87a9,9,0,0,1-3.58-.62,5.53,5.53,0,0,1-2.21-1.69,6.17,6.17,0,0,1-1.1-2.44,14,14,0,0,1-.3-2.94V17.37c0-.37.23-.65.69-.83a4.16,4.16,0,0,1,1.55-.27,4.2,4.2,0,0,1,1.53.27c.47.18.7.46.7.83V33.42a3.15,3.15,0,0,0,.68,2.35,2.77,2.77,0,0,0,2,.63h15.51c.37,0,.66.23.85.7a4.4,4.4,0,0,1,0,3.09.93.93,0,0,1-.85.68Z"/><path class="logocomind-3" d="M91.71,28.57v-4.9A13.88,13.88,0,0,1,92,21a6.09,6.09,0,0,1,1.11-2.45,5.48,5.48,0,0,1,2.2-1.68,8.8,8.8,0,0,1,3.58-.63h16a.93.93,0,0,1,.85.69,4.37,4.37,0,0,1,0,3.08c-.19.47-.48.7-.85.7h-16a2.84,2.84,0,0,0-2,.6,3,3,0,0,0-.67,2.27V25C92.46,25.94,91.71,28.57,91.71,28.57Zm0,5.47A14.48,14.48,0,0,1,92,31.11a6.09,6.09,0,0,1,1.11-2.45A5.39,5.39,0,0,1,95.31,27a8.8,8.8,0,0,1,3.58-.63h16a.93.93,0,0,1,.85.69,4,4,0,0,1,.28,1.55,4,4,0,0,1-.28,1.53c-.19.47-.48.7-.85.7h-16a2.8,2.8,0,0,0-2,.63,3.17,3.17,0,0,0-.67,2.35l0,.36v5.58c0,.38-.23.66-.7.85a4.4,4.4,0,0,1-3.09,0,.91.91,0,0,1-.68-.85Z"/><path class="logocomind-4" d="M125.92,0a1.91,1.91,0,0,1,1.29.49.11.11,0,0,1,0,.15l-.14.14c0,.06-.09,0-.14,0a1.58,1.58,0,0,0-1-.4,1.51,1.51,0,0,0-1.48,1.53,1.5,1.5,0,0,0,1.48,1.52,1.55,1.55,0,0,0,1-.4.11.11,0,0,1,.13,0l.16.14a.1.1,0,0,1,0,.14,1.81,1.81,0,0,1-1.29.52,1.91,1.91,0,1,1,0-3.82Z"/><path class="logocomind-4" d="M129.75,0a1.91,1.91,0,0,1,0,3.82,1.89,1.89,0,0,1-1.9-1.91A1.89,1.89,0,0,1,129.75,0Zm0,3.45a1.55,1.55,0,0,0,1.54-1.54,1.54,1.54,0,1,0-1.54,1.54Z"/><path class="logocomind-4" d="M132.05.19a.1.1,0,0,1,.09-.14h.21a.09.09,0,0,1,.09.06l1.32,3h0l1.32-3a.09.09,0,0,1,.09-.06h.21a.1.1,0,0,1,.09.14l-1.61,3.57a.11.11,0,0,1-.09.06h-.06a.13.13,0,0,1-.09-.06Z"/><path class="logocomind-4" d="M136.18.15a.1.1,0,0,1,.1-.1h2.09a.1.1,0,0,1,.1.1V.31a.1.1,0,0,1-.1.1h-1.78V1.7h1.52a.11.11,0,0,1,.1.1V2a.11.11,0,0,1-.1.1h-1.52V3.41h1.78a.1.1,0,0,1,.1.1v.15a.09.09,0,0,1-.1.1h-2.09a.09.09,0,0,1-.1-.1Z"/><path class="logocomind-4" d="M139.43.15a.1.1,0,0,1,.1-.1h1.37a1.14,1.14,0,0,1,1.16,1.13,1.18,1.18,0,0,1-.79,1.08L142,3.61a.1.1,0,0,1-.09.15h-.27a.1.1,0,0,1-.09,0l-.7-1.41h-1V3.66a.09.09,0,0,1-.1.1h-.2a.09.09,0,0,1-.1-.1ZM140.87,2a.78.78,0,0,0,.77-.77.77.77,0,0,0-.77-.75h-1V2Z"/><path class="logocomind-4" d="M145,1.78h0l-.13-.14a1.07,1.07,0,0,1-.37-.77.87.87,0,0,1,.94-.86.83.83,0,0,1,.9.82c0,.47-.48.82-.79,1l.88.88a2.27,2.27,0,0,0,.21-.94c0-.12,0-.13.12-.13h.13c.11,0,.1.08.1.13A2.49,2.49,0,0,1,146.62,3l.51.51c.07.07.11.12,0,.24l-.07.06a.14.14,0,0,1-.22,0l-.45-.46a1.51,1.51,0,0,1-1.15.53,1,1,0,0,1-1-1A1.27,1.27,0,0,1,145,1.78Zm.3,1.71a1.19,1.19,0,0,0,.91-.45l-1-1a1.05,1.05,0,0,0-.6.84A.65.65,0,0,0,145.25,3.49Zm.66-2.66a.52.52,0,0,0-.55-.52.53.53,0,0,0-.55.56.79.79,0,0,0,.34.6l.11.12C145.5,1.45,145.91,1.21,145.91.83Z"/><path class="logocomind-4" d="M149.24.15a.1.1,0,0,1,.1-.1h2.09a.1.1,0,0,1,.1.1V.31a.1.1,0,0,1-.1.1h-1.78V1.86h1.52a.11.11,0,0,1,.1.1v.16a.11.11,0,0,1-.1.1h-1.52V3.66a.1.1,0,0,1-.1.1h-.21a.09.09,0,0,1-.1-.1Z"/><path class="logocomind-4" d="M152.36.15a.1.1,0,0,1,.1-.1h.21a.11.11,0,0,1,.1.1V3.41h1.53a.11.11,0,0,1,.1.1v.15a.1.1,0,0,1-.1.1h-1.84a.09.09,0,0,1-.1-.1Z"/><path class="logocomind-4" d="M156.65,0a1.91,1.91,0,0,1,0,3.82,1.89,1.89,0,0,1-1.9-1.91A1.89,1.89,0,0,1,156.65,0Zm0,3.45a1.55,1.55,0,0,0,1.54-1.54,1.54,1.54,0,1,0-1.54,1.54Z"/><path class="logocomind-4" d="M161.11,0a1.91,1.91,0,1,1-1.91,1.91A1.9,1.9,0,0,1,161.11,0Zm0,3.45a1.54,1.54,0,1,0-1.53-1.54A1.54,1.54,0,0,0,161.11,3.45Z"/><path class="logocomind-4" d="M163.93.15a.11.11,0,0,1,.1-.1h1.38a1.14,1.14,0,0,1,1.15,1.13,1.17,1.17,0,0,1-.78,1.08l.72,1.35a.1.1,0,0,1-.09.15h-.27a.09.09,0,0,1-.08,0l-.71-1.41h-1V3.66a.1.1,0,0,1-.1.1H164a.1.1,0,0,1-.1-.1ZM165.38,2a.77.77,0,0,0,.76-.77.76.76,0,0,0-.76-.75h-1V2Z"/><path class="logocomind-4" d="M167.54.15a.11.11,0,0,1,.1-.1h.22a.11.11,0,0,1,.1.1V3.66a.1.1,0,0,1-.1.1h-.22a.1.1,0,0,1-.1-.1Z"/><path class="logocomind-4" d="M169.14.1a.1.1,0,0,1,.1-.1h.14l2.39,3h0V.15a.1.1,0,0,1,.1-.1h.18a.11.11,0,0,1,.11.1V3.72a.11.11,0,0,1-.11.1H172l-2.43-3h0V3.66a.09.09,0,0,1-.1.1h-.19a.1.1,0,0,1-.1-.1Z"/><path class="logocomind-4" d="M175,0a1.9,1.9,0,0,1,1.28.49c0,.05.05.11,0,.15l-.14.15s-.08,0-.14,0a1.65,1.65,0,0,0-1-.41,1.49,1.49,0,0,0-1.47,1.52A1.5,1.5,0,0,0,175,3.42a2.07,2.07,0,0,0,1-.22V2.46h-.61a.1.1,0,0,1-.11-.1V2.17a.1.1,0,0,1,.11-.1h.91a.1.1,0,0,1,.1.1V3.38a.15.15,0,0,1,0,.09,2.66,2.66,0,0,1-1.31.35A1.91,1.91,0,1,1,175,0Z"/><path class="logocomind-4" d="M178.38,3.21l.08-.1c.06-.07.11-.11.19,0a1.47,1.47,0,0,0,.89.4.64.64,0,0,0,.71-.58c0-.37-.31-.58-.92-.84s-.94-.49-.94-1.1A1,1,0,0,1,179.52,0a1.75,1.75,0,0,1,.91.27.12.12,0,0,1,0,.18l-.06.1a.12.12,0,0,1-.19,0,1.52,1.52,0,0,0-.69-.24c-.56,0-.73.36-.73.58s.27.56.71.75c.72.29,1.18.56,1.18,1.17a1.06,1.06,0,0,1-1.15,1,1.77,1.77,0,0,1-1.12-.43A.12.12,0,0,1,178.38,3.21Z"/><path class="logocomind-4" d="M181.55.15a.11.11,0,0,1,.1-.1h.22a.11.11,0,0,1,.1.1V3.66a.1.1,0,0,1-.1.1h-.22a.1.1,0,0,1-.1-.1Z"/><path class="logocomind-4" d="M183.15.1a.1.1,0,0,1,.1-.1h.14l2.39,3h0V.15a.1.1,0,0,1,.1-.1h.19a.11.11,0,0,1,.1.1V3.72a.11.11,0,0,1-.1.1H186l-2.43-3h0V3.66a.09.09,0,0,1-.1.1h-.19a.1.1,0,0,1-.1-.1Z"/><path class="logocomind-4" d="M189,0a1.9,1.9,0,0,1,1.28.49.11.11,0,0,1,0,.15l-.15.14c0,.06-.08,0-.14,0a1.58,1.58,0,0,0-1-.4,1.51,1.51,0,0,0-1.48,1.53A1.5,1.5,0,0,0,189,3.43a1.55,1.55,0,0,0,1-.4.11.11,0,0,1,.13,0l.16.14a.11.11,0,0,1,0,.14,1.85,1.85,0,0,1-1.29.52A1.91,1.91,0,1,1,189,0Z"/><path class="logocomind-4" d="M191.22.15a.1.1,0,0,1,.1-.1h2.09a.11.11,0,0,1,.1.1V.31a.11.11,0,0,1-.1.1h-1.79V1.7h1.53a.11.11,0,0,1,.1.1V2a.11.11,0,0,1-.1.1h-1.53V3.41h1.79a.11.11,0,0,1,.1.1v.15a.1.1,0,0,1-.1.1h-2.09a.09.09,0,0,1-.1-.1Z"/><path class="logocomind-4" d="M196,1.12l-.47.1a.08.08,0,0,1-.1-.06l0-.26a.1.1,0,0,1,0-.1l.77-.64h.37a.1.1,0,0,1,.09.1v3.4a.09.09,0,0,1-.09.1h-.46a.09.09,0,0,1-.1-.1Z"/><path class="logocomind-4" d="M197.89,3.31a1.92,1.92,0,0,0,1.17-1,1.49,1.49,0,0,1-.61.15,1.08,1.08,0,0,1-1.08-1.15,1.22,1.22,0,0,1,1.2-1.22,1.3,1.3,0,0,1,1.26,1.47,2.47,2.47,0,0,1-1.76,2.31.11.11,0,0,1-.15-.08l-.12-.31C197.77,3.4,197.79,3.34,197.89,3.31Zm1.3-1.85c0-.36-.19-.78-.62-.78a.62.62,0,0,0,0,1.24A.64.64,0,0,0,199.19,1.46Z"/><path class="logocomind-4" d="M202.16,0a.11.11,0,0,1,.15.08l.12.31c0,.06,0,.12-.1.15a1.88,1.88,0,0,0-1.16,1,1.43,1.43,0,0,1,.6-.15,1.08,1.08,0,0,1,1.08,1.15,1.21,1.21,0,0,1-1.2,1.22,1.3,1.3,0,0,1-1.26-1.47A2.47,2.47,0,0,1,202.16,0Zm.09,2.55a.61.61,0,0,0-.61-.62.65.65,0,0,0-.61.46c0,.36.19.78.62.78A.61.61,0,0,0,202.25,2.59Z"/><path class="logocomind-4" d="M203.84,1.12l-.47.1a.07.07,0,0,1-.1-.06l0-.26a.13.13,0,0,1,0-.1L204,.16h.38a.1.1,0,0,1,.09.1v3.4a.09.09,0,0,1-.09.1h-.46a.09.09,0,0,1-.1-.1Z"/><path class="logocomind-4" d="M75.47,59.36v0a3.39,3.39,0,0,1,3.47-3.45,3.53,3.53,0,0,1,2.23.68.73.73,0,0,1,.29.58.72.72,0,0,1-.73.71.71.71,0,0,1-.43-.14,2.23,2.23,0,0,0-1.37-.47A2,2,0,0,0,77,59.32v0a2,2,0,0,0,1.93,2.09,2.16,2.16,0,0,0,1.45-.52.74.74,0,0,1,.44-.16.68.68,0,0,1,.68.67.72.72,0,0,1-.24.53,3.51,3.51,0,0,1-5.79-2.59Z"/><path class="logocomind-4" d="M82.74,59.36v0a3.55,3.55,0,0,1,7.09,0v0a3.55,3.55,0,0,1-7.09,0Zm5.55,0v0a2,2,0,0,0-2-2.09,2,2,0,0,0-2,2.07v0a2,2,0,0,0,2,2.09A2,2,0,0,0,88.29,59.36Z"/><path class="logocomind-4" d="M91.57,56.7A.73.73,0,0,1,92.3,56h.17a.74.74,0,0,1,.66.38l1.77,2.88,1.78-2.89a.73.73,0,0,1,.66-.37h.16a.73.73,0,0,1,.74.73V62a.74.74,0,0,1-.74.73.73.73,0,0,1-.72-.73V58.67l-1.29,2a.68.68,0,0,1-1.21,0L93,58.7V62a.72.72,0,0,1-1.44,0Z"/><path class="logocomind-4" d="M100.27,61.94v-5.2A.73.73,0,0,1,101,56h3.69a.65.65,0,1,1,0,1.3h-3v1.35h2.54a.67.67,0,0,1,.66.66.66.66,0,0,1-.66.65h-2.54v1.4h3a.65.65,0,1,1,0,1.3H101A.73.73,0,0,1,100.27,61.94Zm2.14-6.65a.48.48,0,0,1,.09-.25l.53-.82a.62.62,0,0,1,.54-.33c.35,0,.81.22.81.44a.46.46,0,0,1-.19.34l-.59.56a1.1,1.1,0,0,1-.83.31C102.56,55.54,102.41,55.45,102.41,55.29Z"/><path class="logocomind-4" d="M107.09,56.74a.73.73,0,0,1,.74-.73h2.31a2.68,2.68,0,0,1,1.94.67,2.11,2.11,0,0,1,.57,1.53v0a2,2,0,0,1-1.33,2l1,1.24a.86.86,0,0,1,.24.56.69.69,0,0,1-.7.68.87.87,0,0,1-.72-.38l-1.43-1.81h-1.17V62a.73.73,0,0,1-.73.73.74.74,0,0,1-.74-.73Zm3,2.5c.72,0,1.13-.38,1.13-.94v0c0-.63-.44-1-1.15-1h-1.46v1.91Z"/><path class="logocomind-4" d="M114.12,59.36v0a3.39,3.39,0,0,1,3.48-3.45,3.52,3.52,0,0,1,2.22.68.7.7,0,0,1,.29.58.72.72,0,0,1-.73.71.71.71,0,0,1-.43-.14,2.22,2.22,0,0,0-1.36-.47,2,2,0,0,0-1.94,2.07v0a2,2,0,0,0,1.94,2.09,2.15,2.15,0,0,0,1.44-.52.74.74,0,0,1,.44-.16.69.69,0,0,1,.69.67.72.72,0,0,1-.25.53,3.51,3.51,0,0,1-5.79-2.59Z"/><path class="logocomind-4" d="M122,56.68a.73.73,0,1,1,1.46,0V62A.73.73,0,1,1,122,62Z"/><path class="logocomind-4" d="M125.22,59.36v0a3.55,3.55,0,0,1,7.09,0v0a3.55,3.55,0,0,1-7.09,0Zm5.55,0v0a2,2,0,0,0-2-2.09,2,2,0,0,0-2,2.07v0a2,2,0,0,0,2,2.09A2,2,0,0,0,130.77,59.36Z"/><path class="logocomind-4" d="M141.65,62.56l-.56-.56a3,3,0,0,1-2,.77,2,2,0,0,1-2.24-1.93v0A1.93,1.93,0,0,1,138.16,59a2.2,2.2,0,0,1-.46-1.34v0a1.83,1.83,0,0,1,2-1.75,1.72,1.72,0,0,1,1.87,1.68v0a1.85,1.85,0,0,1-1.39,1.74l.88.87c.15-.23.29-.47.43-.73a.64.64,0,0,1,.55-.33.62.62,0,0,1,.61.61.55.55,0,0,1-.09.3,10.57,10.57,0,0,1-.64,1l.61.6a.64.64,0,0,1,.22.48.63.63,0,0,1-.64.64A.61.61,0,0,1,141.65,62.56Zm-1.4-1.39L139,59.88a1,1,0,0,0-.63.89v0a.83.83,0,0,0,.94.78A1.61,1.61,0,0,0,140.25,61.17Zm.07-3.5v0a.58.58,0,0,0-.63-.61.62.62,0,0,0-.65.67v0a1.18,1.18,0,0,0,.39.83C140,58.34,140.32,58.1,140.32,57.67Z"/><path class="logocomind-4" d="M147.77,56.68a.74.74,0,0,1,1.47,0V62a.74.74,0,0,1-1.47,0Z"/><path class="logocomind-4" d="M151.34,56.7a.73.73,0,0,1,.74-.73h.15a.9.9,0,0,1,.76.43l2.83,3.71V56.67a.72.72,0,1,1,1.44,0V62a.72.72,0,0,1-.73.73h-.05a.9.9,0,0,1-.76-.43l-2.93-3.85V62a.73.73,0,0,1-.72.73.73.73,0,0,1-.73-.73Z"/><path class="logocomind-4" d="M159.3,56.74A.73.73,0,0,1,160,56h1.86a3.31,3.31,0,0,1,3.54,3.31v0a3.33,3.33,0,0,1-3.54,3.33H160a.73.73,0,0,1-.74-.73Zm2.6,4.61a1.9,1.9,0,0,0,2-2v0a1.92,1.92,0,0,0-2-2h-1.13v4Z"/><path class="logocomind-4" d="M167.08,59.82V56.68a.73.73,0,0,1,.74-.73.72.72,0,0,1,.73.73v3.1c0,1.08.54,1.64,1.44,1.64s1.43-.54,1.43-1.6V56.68a.73.73,0,0,1,.74-.73.72.72,0,0,1,.73.73v3.09a2.68,2.68,0,0,1-2.92,3A2.65,2.65,0,0,1,167.08,59.82Zm2.51-4.53a.48.48,0,0,1,.09-.25l.53-.82a.62.62,0,0,1,.54-.33c.35,0,.81.22.81.44a.46.46,0,0,1-.19.34l-.59.56a1.1,1.1,0,0,1-.83.31C169.74,55.54,169.59,55.45,169.59,55.29Z"/><path class="logocomind-4" d="M174.69,62a.71.71,0,0,1-.27-.56.67.67,0,0,1,.68-.67.77.77,0,0,1,.42.13,2.81,2.81,0,0,0,1.7.6c.6,0,1-.24,1-.63v0c0-.37-.23-.56-1.35-.84-1.34-.35-2.21-.72-2.21-2v0a2.09,2.09,0,0,1,2.34-2,3.86,3.86,0,0,1,2.11.59.68.68,0,0,1,.32.58.68.68,0,0,1-1.05.57,2.85,2.85,0,0,0-1.4-.44c-.56,0-.86.25-.86.58v0c0,.43.29.58,1.44.87,1.35.35,2.11.84,2.11,2v0c0,1.32-1,2.07-2.44,2.07A4.33,4.33,0,0,1,174.69,62Z"/><path class="logocomind-4" d="M182.77,57.36h-1.41a.69.69,0,0,1-.68-.68.68.68,0,0,1,.68-.67h4.28a.68.68,0,0,1,.68.67.69.69,0,0,1-.68.68h-1.41V62a.73.73,0,0,1-1.46,0Z"/><path class="logocomind-4" d="M187.82,56.74a.73.73,0,0,1,.74-.73h2.31a2.68,2.68,0,0,1,1.94.67,2.11,2.11,0,0,1,.57,1.53v0a2,2,0,0,1-1.33,2l1,1.24a.86.86,0,0,1,.24.56.69.69,0,0,1-.7.68.87.87,0,0,1-.72-.38l-1.43-1.81h-1.17V62a.73.73,0,0,1-.73.73.74.74,0,0,1-.74-.73Zm3,2.5c.72,0,1.13-.38,1.13-.94v0c0-.63-.44-1-1.15-1h-1.46v1.91Z"/><path class="logocomind-4" d="M195.21,56.68A.73.73,0,0,1,196,56a.72.72,0,0,1,.73.73V62a.73.73,0,0,1-.73.73.74.74,0,0,1-.74-.73Z"/><path class="logocomind-4" d="M198.41,61.73l2.33-5.25a.9.9,0,0,1,.85-.58h.09a.91.91,0,0,1,.85.58l2.32,5.25a.65.65,0,0,1,.07.29.7.7,0,0,1-.69.71.76.76,0,0,1-.71-.51l-.44-1h-2.93l-.47,1.09a.72.72,0,0,1-.68.46.67.67,0,0,1-.67-.69A.71.71,0,0,1,198.41,61.73Zm4.12-1.85-.92-2.2-.92,2.2Z"/></g></g></svg>