<svg xmlns="http://www.w3.org/2000/svg" xmlns:xlink="http://www.w3.org/1999/xlink" viewBox="0 0 207.18 65.03"><defs><style>.logonautico-1{fill:url(#New_Gradient_Swatch_6);}.logonautico-2{fill:#fff;}.logonautico-3{fill:#474c4d;}</style><linearGradient id="New_Gradient_Swatch_6" x1="1.21" y1="28.87" x2="204.19" y2="28.87" gradientUnits="userSpaceOnUse"><stop offset="0" stop-color="#213d70"/><stop offset="1" stop-color="#00549b"/></linearGradient></defs><g id="logonautico_2" data-name="logonautico 2"><g id="logonautico_1" data-name="logonautico 1"><path class="logonautico-1" d="M174.37,8.76h32.81a0,0,0,0,1,0,0V41.7A7.28,7.28,0,0,1,199.9,49H167.09a0,0,0,0,1,0,0V16a7.28,7.28,0,0,1,7.28-7.28Z"/><path class="logonautico-1" d="M132.6,8.76h32.81a0,0,0,0,1,0,0V41.7A7.28,7.28,0,0,1,158.14,49H125.32a0,0,0,0,1,0,0V16A7.28,7.28,0,0,1,132.6,8.76Z"/><path class="logonautico-1" d="M90.84,8.76h32.81a0,0,0,0,1,0,0V41.7A7.28,7.28,0,0,1,116.37,49H83.56a0,0,0,0,1,0,0V16A7.28,7.28,0,0,1,90.84,8.76Z"/><path class="logonautico-1" d="M49.06,8.76H81.87a0,0,0,0,1,0,0V41.7A7.28,7.28,0,0,1,74.59,49H41.78a0,0,0,0,1,0,0V16a7.28,7.28,0,0,1,7.28-7.28Z"/><path class="logonautico-1" d="M7.28,8.76H40.09a0,0,0,0,1,0,0V41.7A7.28,7.28,0,0,1,32.81,49H0a0,0,0,0,1,0,0V16A7.28,7.28,0,0,1,7.28,8.76Z"/><path class="logonautico-2" d="M195.62,16.65v0a3.75,3.75,0,0,1,7.49,0v0a3.75,3.75,0,0,1-3.76,3.74A3.71,3.71,0,0,1,195.62,16.65Zm7.09,0v0a3.3,3.3,0,0,0-3.34-3.35A3.34,3.34,0,0,0,196,16.63v0a3.35,3.35,0,1,0,6.7,0Zm-4.86-2.07h1.75a1.65,1.65,0,0,1,1.19.41,1.13,1.13,0,0,1,.32.83v0A1.16,1.16,0,0,1,200.2,17l1.06,1.48h-.89l-1-1.35h-.82v1.35h-.75Zm1.72,1.91c.49,0,.78-.23.78-.61v0c0-.39-.29-.61-.78-.61h-1v1.24Z"/><path class="logonautico-2" d="M7.77,28.87V23.93a13.47,13.47,0,0,1,.3-2.68,6.18,6.18,0,0,1,1.11-2.47,5.62,5.62,0,0,1,2.23-1.7A8.79,8.79,0,0,1,15,16.44H31.18a.93.93,0,0,1,.86.7,4.05,4.05,0,0,1,.29,1.56A4.16,4.16,0,0,1,32,20.26a.93.93,0,0,1-.86.7H15a2.86,2.86,0,0,0-2,.61,3,3,0,0,0-.67,2.29V25.3C8.52,26.22,7.77,28.87,7.77,28.87Zm0,5.54a14.1,14.1,0,0,1,.3-3A6.12,6.12,0,0,1,9.18,29a5.55,5.55,0,0,1,2.23-1.71A9,9,0,0,1,15,26.63H31.18a.93.93,0,0,1,.86.69,4.34,4.34,0,0,1,0,3.12c-.19.47-.48.71-.86.71H15a2.87,2.87,0,0,0-2,.63,3.24,3.24,0,0,0-.67,2.38l0,.37v5.63c0,.38-.24.67-.71.86a4.11,4.11,0,0,1-1.55.29A4.07,4.07,0,0,1,8.49,41a.93.93,0,0,1-.69-.86Z"/><path class="logonautico-2" d="M47.75,28.92A17.18,17.18,0,0,1,48.64,23a9.59,9.59,0,0,1,2.63-4,11,11,0,0,1,4.36-2.29A22.46,22.46,0,0,1,61.7,16a23.42,23.42,0,0,1,6.16.74A11.83,11.83,0,0,1,72.41,19a9.67,9.67,0,0,1,2.82,4,16,16,0,0,1,1,5.89,15.88,15.88,0,0,1-1,5.88,9.6,9.6,0,0,1-2.82,4A11.8,11.8,0,0,1,67.86,41a23.9,23.9,0,0,1-6.16.72A22.92,22.92,0,0,1,55.63,41a11,11,0,0,1-4.36-2.27,9.52,9.52,0,0,1-2.63-4A17.08,17.08,0,0,1,47.75,28.92Zm4.49,0a9.86,9.86,0,0,0,.65,3.81,6.56,6.56,0,0,0,1.86,2.61,7.87,7.87,0,0,0,3,1.51,15.07,15.07,0,0,0,4,.48,16,16,0,0,0,4-.48,8.75,8.75,0,0,0,3.16-1.51,6.69,6.69,0,0,0,2-2.61,9,9,0,0,0,.73-3.81A9.12,9.12,0,0,0,71,25.09a6.83,6.83,0,0,0-2-2.63,8.64,8.64,0,0,0-3.16-1.54,15.52,15.52,0,0,0-4-.5,14.63,14.63,0,0,0-4,.5,7.78,7.78,0,0,0-3,1.54,6.7,6.7,0,0,0-1.86,2.63A10,10,0,0,0,52.24,28.92Z"/><path class="logonautico-2" d="M150.94,28.11l-1.86-3.89A5.94,5.94,0,0,0,147.42,22a3.06,3.06,0,0,0-3.93,0,5.71,5.71,0,0,0-1.65,2.19L134.1,40.34a1.76,1.76,0,0,1-1.16.85,6.32,6.32,0,0,1-1.85.27,7.4,7.4,0,0,1-.83-.05,3.87,3.87,0,0,1-.74-.15A1.7,1.7,0,0,1,129,41a.47.47,0,0,1-.22-.38.49.49,0,0,1,.06-.27l7.81-16.09a29.36,29.36,0,0,1,1.88-3.42,13.37,13.37,0,0,1,2-2.44,6.9,6.9,0,0,1,5-1.95,6.87,6.87,0,0,1,2.65.49,7,7,0,0,1,2.26,1.46,13.11,13.11,0,0,1,2,2.42,30.3,30.3,0,0,1,1.88,3.38l2.87,5.95C155.11,27.75,150.94,28.11,150.94,28.11Zm.82,1.68a6.69,6.69,0,0,1,2.62.5,7.08,7.08,0,0,1,2.2,1.49,15.43,15.43,0,0,1,2,2.44,37.33,37.33,0,0,1,2,3.35l1.39,2.62a.49.49,0,0,1,.06.27.48.48,0,0,1-.21.38,1.88,1.88,0,0,1-.55.27,3.82,3.82,0,0,1-.75.15,7.65,7.65,0,0,1-.81.05A6.34,6.34,0,0,1,157.8,41a1.8,1.8,0,0,1-1.16-.85l-1.29-2.59a8.76,8.76,0,0,0-1.63-2.37,2.8,2.8,0,0,0-2-.92H141.69c-.38,0-.66-.23-.86-.7a4.16,4.16,0,0,1-.28-1.56,4.05,4.05,0,0,1,.28-1.56c.2-.46.48-.7.86-.7Z"/><path class="logonautico-2" d="M182.39,41.31a8.79,8.79,0,0,1-3.62-.64,5.62,5.62,0,0,1-2.23-1.7,6.18,6.18,0,0,1-1.11-2.47,13.46,13.46,0,0,1-.31-3v-16a.92.92,0,0,1,.7-.85,4.25,4.25,0,0,1,1.56-.27,4.37,4.37,0,0,1,1.56.27.92.92,0,0,1,.71.85V33.77a3.22,3.22,0,0,0,.67,2.38,2.82,2.82,0,0,0,2,.64H198a.93.93,0,0,1,.86.7,4.16,4.16,0,0,1,.28,1.56,4.05,4.05,0,0,1-.28,1.56.93.93,0,0,1-.86.7Z"/><path class="logonautico-2" d="M92.68,28.87V23.93a13.47,13.47,0,0,1,.3-2.68,6.2,6.2,0,0,1,1.12-2.47,5.55,5.55,0,0,1,2.23-1.7,8.76,8.76,0,0,1,3.62-.64H116.1a.93.93,0,0,1,.86.7,4.05,4.05,0,0,1,.28,1.56,4.16,4.16,0,0,1-.28,1.56.93.93,0,0,1-.86.7H99.89a2.85,2.85,0,0,0-2,.61,3,3,0,0,0-.68,2.29V25.3C93.44,26.22,92.68,28.87,92.68,28.87Zm0,5.54a14.1,14.1,0,0,1,.3-3A6.13,6.13,0,0,1,94.1,29a5.48,5.48,0,0,1,2.23-1.71,8.94,8.94,0,0,1,3.62-.63H116.1a.93.93,0,0,1,.86.69,4.49,4.49,0,0,1,0,3.12c-.19.47-.48.71-.86.71H99.89a2.85,2.85,0,0,0-2,.63,3.24,3.24,0,0,0-.68,2.38l0,.37v5.63c0,.38-.23.67-.71.86a4.11,4.11,0,0,1-1.55.29A4.05,4.05,0,0,1,93.41,41a.93.93,0,0,1-.7-.86Z"/><path class="logonautico-3" d="M96.17,57.55a.72.72,0,0,1,.73-.72h.15a.9.9,0,0,1,.75.42l2.8,3.68v-3.4a.72.72,0,1,1,1.43,0v5.24a.72.72,0,0,1-.72.73h0a.87.87,0,0,1-.75-.43l-2.91-3.8V62.8a.72.72,0,1,1-1.43,0Z"/><path class="logonautico-3" d="M103.81,62.53l2.3-5.19a.9.9,0,0,1,.85-.58H107a.88.88,0,0,1,.84.58l2.3,5.19a.65.65,0,0,1,.07.29.69.69,0,0,1-.68.7.74.74,0,0,1-.7-.5l-.44-1h-2.9l-.47,1.08a.7.7,0,0,1-.66.46.67.67,0,0,1-.67-.68A.68.68,0,0,1,103.81,62.53Zm4.08-1.83L107,58.52l-.92,2.18Zm-1.3-4.63a.62.62,0,0,1,.09-.26l.52-.81a.61.61,0,0,1,.54-.32c.35,0,.8.22.8.44a.46.46,0,0,1-.19.33l-.58.55a1,1,0,0,1-.82.31C106.74,56.31,106.59,56.22,106.59,56.07Z"/><path class="logonautico-3" d="M111.71,60.63V57.54a.73.73,0,1,1,1.45,0V60.6c0,1.07.54,1.63,1.43,1.63s1.42-.54,1.42-1.59v-3.1a.73.73,0,1,1,1.45,0v3.05a2.65,2.65,0,0,1-2.89,3A2.62,2.62,0,0,1,111.71,60.63Z"/><path class="logonautico-3" d="M121,58.2h-1.4a.67.67,0,1,1,0-1.33h4.24a.67.67,0,1,1,0,1.33h-1.39v4.59a.73.73,0,1,1-1.45,0Z"/><path class="logonautico-3" d="M126.24,57.54a.73.73,0,1,1,1.45,0v5.25a.73.73,0,1,1-1.45,0Z"/><path class="logonautico-3" d="M129.61,60.18v0A3.35,3.35,0,0,1,133,56.75a3.55,3.55,0,0,1,2.21.67.74.74,0,0,1,.28.58.71.71,0,0,1-.72.7.76.76,0,0,1-.43-.14,2.16,2.16,0,0,0-1.34-.47,2,2,0,0,0-1.92,2v0A2,2,0,0,0,133,62.24a2.13,2.13,0,0,0,1.43-.52.63.63,0,0,1,.43-.16.66.66,0,0,1,.43,1.18,3.47,3.47,0,0,1-5.72-2.56Z"/><path class="logonautico-3" d="M137.05,62.53l2.29-5.19a.92.92,0,0,1,.85-.58h.09a.89.89,0,0,1,.84.58l2.29,5.19a.67.67,0,0,1,.08.29.69.69,0,0,1-.69.7.75.75,0,0,1-.7-.5l-.44-1h-2.9l-.46,1.08a.71.71,0,0,1-.67.46.67.67,0,0,1-.67-.68A.69.69,0,0,1,137.05,62.53Zm4.07-1.83-.91-2.18-.91,2.18Z"/><path class="logonautico-3" d="M152.84,63.35l-.55-.56a3,3,0,0,1-2,.76,2,2,0,0,1-2.22-1.9v0a1.93,1.93,0,0,1,1.28-1.81,2.12,2.12,0,0,1-.46-1.31v0a1.82,1.82,0,0,1,2-1.74,1.7,1.7,0,0,1,1.85,1.66v0a1.82,1.82,0,0,1-1.37,1.72l.87.86c.15-.22.29-.46.43-.71a.6.6,0,0,1,1.14.27.55.55,0,0,1-.09.3,9.66,9.66,0,0,1-.63,1l.61.59a.64.64,0,0,1,.21.47.62.62,0,0,1-.63.63A.6.6,0,0,1,152.84,63.35ZM151.46,62l-1.27-1.27a1,1,0,0,0-.62.88h0a.82.82,0,0,0,.93.78A1.53,1.53,0,0,0,151.46,62Zm.06-3.45v0a.58.58,0,0,0-.62-.62.62.62,0,0,0-.64.67v0a1.16,1.16,0,0,0,.39.82C151.22,59.17,151.52,58.94,151.52,58.52Z"/><path class="logonautico-3" d="M158.73,62.53,161,57.34a.92.92,0,0,1,.85-.58H162a.89.89,0,0,1,.84.58l2.29,5.19a.67.67,0,0,1,.08.29.69.69,0,0,1-.69.7.75.75,0,0,1-.7-.5l-.44-1h-2.9L160,63.06a.71.71,0,0,1-.67.46.67.67,0,0,1-.67-.68A.69.69,0,0,1,158.73,62.53Zm4.07-1.83-.91-2.18L161,60.7Z"/><path class="logonautico-3" d="M168,63l-2.14-5.12a.82.82,0,0,1-.09-.34.71.71,0,0,1,.73-.72.76.76,0,0,1,.73.51l1.65,4.27,1.67-4.32a.75.75,0,0,1,.69-.46.7.7,0,0,1,.72.7.84.84,0,0,1-.08.32L169.71,63a.85.85,0,0,1-.82.57h-.1A.84.84,0,0,1,168,63Z"/><path class="logonautico-3" d="M173.68,57.54a.73.73,0,1,1,1.45,0v5.25a.73.73,0,1,1-1.45,0Z"/><path class="logonautico-3" d="M177,62.53l2.3-5.19a.89.89,0,0,1,.84-.58h.09a.88.88,0,0,1,.84.58l2.3,5.19a.82.82,0,0,1,.07.29.69.69,0,0,1-.69.7A.73.73,0,0,1,182,63l-.45-1h-2.9l-.46,1.08a.71.71,0,0,1-.67.46.68.68,0,0,1-.67-.68A.69.69,0,0,1,177,62.53Zm4.08-1.83-.92-2.18-.91,2.18Z"/><path class="logonautico-3" d="M188.22,63.56l-.47,1.17a.39.39,0,0,1-.41.3c-.26,0-.81-.25-.81-.49a.49.49,0,0,1,.08-.24l.56-.82a3.31,3.31,0,0,1-2.57-3.3v0A3.35,3.35,0,0,1,188,56.75a3.54,3.54,0,0,1,2.2.67.74.74,0,0,1,.28.58.7.7,0,0,1-.71.7.77.77,0,0,1-.44-.14,2.16,2.16,0,0,0-1.34-.47,2,2,0,0,0-1.92,2v0A2,2,0,0,0,188,62.24a2.13,2.13,0,0,0,1.43-.52.63.63,0,0,1,.43-.16.68.68,0,0,1,.68.67.65.65,0,0,1-.25.51A3.16,3.16,0,0,1,188.22,63.56Z"/><path class="logonautico-3" d="M192,62.53l2.3-5.19a.89.89,0,0,1,.84-.58h.09a.89.89,0,0,1,.84.58l2.3,5.19a.82.82,0,0,1,.07.29.69.69,0,0,1-.69.7.73.73,0,0,1-.69-.5l-.45-1h-2.9l-.46,1.08a.71.71,0,0,1-.67.46.68.68,0,0,1-.67-.68A.69.69,0,0,1,192,62.53Zm1.77-6.15a.42.42,0,0,1-.42-.39.77.77,0,0,1,0-.25c.21-.55.48-.93,1.06-.93s1.07.37,1.41.37a.44.44,0,0,0,.44-.27.44.44,0,0,1,.37-.22.42.42,0,0,1,.42.39.77.77,0,0,1,0,.25c-.21.55-.48.93-1.06.93s-1.07-.37-1.41-.37a.44.44,0,0,0-.44.27A.44.44,0,0,1,193.81,56.38Zm2.31,4.32-.92-2.18-.91,2.18Z"/><path class="logonautico-3" d="M199.66,60.18v0a3.5,3.5,0,0,1,7,0v0a3.5,3.5,0,0,1-7,0Zm5.49,0v0a2,2,0,0,0-2-2.07,2,2,0,0,0-2,2v0a2,2,0,0,0,2,2.08A2,2,0,0,0,205.15,60.18Z"/><path class="logonautico-3" d="M127.27,0a1.87,1.87,0,0,1,1.29.5.11.11,0,0,1,0,.15l-.15.14c0,.06-.08,0-.14,0a1.63,1.63,0,0,0-1-.4,1.51,1.51,0,0,0-1.49,1.54,1.49,1.49,0,0,0,2.51,1.13.11.11,0,0,1,.13,0l.16.14a.11.11,0,0,1,0,.15,1.87,1.87,0,0,1-1.3.52,1.93,1.93,0,1,1,0-3.86Z"/><path class="logonautico-3" d="M131.13,0a1.92,1.92,0,0,1,1.93,1.93,1.93,1.93,0,1,1-3.85,0A1.92,1.92,0,0,1,131.13,0Zm0,3.48a1.56,1.56,0,1,0-1.54-1.55A1.55,1.55,0,0,0,131.13,3.48Z"/><path class="logonautico-3" d="M133.46.19a.1.1,0,0,1,.09-.14h.21a.11.11,0,0,1,.09.06l1.34,3h0l1.33-3a.14.14,0,0,1,.1-.06h.21a.1.1,0,0,1,.09.14L135.31,3.8a.1.1,0,0,1-.09.06h-.05a.1.1,0,0,1-.09-.06Z"/><path class="logonautico-3" d="M137.63.16a.1.1,0,0,1,.1-.11h2.11a.11.11,0,0,1,.11.11V.31a.11.11,0,0,1-.11.1H138V1.72h1.54a.1.1,0,0,1,.1.1V2a.09.09,0,0,1-.1.1H138V3.44h1.8a.11.11,0,0,1,.11.11V3.7a.1.1,0,0,1-.11.1h-2.11a.09.09,0,0,1-.1-.1Z"/><path class="logonautico-3" d="M140.91.16a.1.1,0,0,1,.1-.11h1.39a1.16,1.16,0,0,1,1.17,1.14,1.21,1.21,0,0,1-.79,1.1l.73,1.36a.1.1,0,0,1-.09.15h-.28a.09.09,0,0,1-.08,0l-.71-1.42h-1V3.7a.1.1,0,0,1-.1.1H141a.09.09,0,0,1-.1-.1ZM142.37,2a.77.77,0,1,0,0-1.54h-1V2Z"/><path class="logonautico-3" d="M146.49,1.8h0l-.13-.14A1.11,1.11,0,0,1,146,.87a.88.88,0,0,1,.95-.87.82.82,0,0,1,.9.83c0,.47-.48.83-.79,1l.88.89a2.18,2.18,0,0,0,.22-1c0-.11,0-.12.12-.12h.13c.11,0,.1.08.1.12A2.62,2.62,0,0,1,148.19,3l.51.51c.06.07.11.13,0,.25l-.06.06a.14.14,0,0,1-.22,0L148,3.32a1.53,1.53,0,0,1-1.17.54,1,1,0,0,1-1-1A1.27,1.27,0,0,1,146.49,1.8Zm.31,1.73a1.17,1.17,0,0,0,.91-.46l-1-1a1.07,1.07,0,0,0-.6.85A.66.66,0,0,0,146.8,3.53Zm.67-2.69a.56.56,0,0,0-1.12,0,.85.85,0,0,0,.34.61l.12.12C147.05,1.46,147.47,1.22,147.47.84Z"/><path class="logonautico-3" d="M150.83.16a.1.1,0,0,1,.1-.11H153a.1.1,0,0,1,.1.11V.31a.1.1,0,0,1-.1.1h-1.8V1.88h1.54a.11.11,0,0,1,.1.1v.16a.11.11,0,0,1-.1.1h-1.54V3.7a.1.1,0,0,1-.1.1h-.21a.09.09,0,0,1-.1-.1Z"/><path class="logonautico-3" d="M154,.16a.11.11,0,0,1,.1-.11h.21a.11.11,0,0,1,.11.11V3.44h1.54a.1.1,0,0,1,.1.11V3.7a.09.09,0,0,1-.1.1h-1.86a.1.1,0,0,1-.1-.1Z"/><path class="logonautico-3" d="M158.32,0a1.93,1.93,0,1,1-1.93,1.93A1.92,1.92,0,0,1,158.32,0Zm0,3.48a1.56,1.56,0,1,0-1.55-1.55A1.55,1.55,0,0,0,158.32,3.48Z"/><path class="logonautico-3" d="M162.82,0a1.93,1.93,0,1,1,0,3.86,1.91,1.91,0,0,1-1.92-1.93A1.92,1.92,0,0,1,162.82,0Zm0,3.48a1.56,1.56,0,0,0,1.56-1.55,1.56,1.56,0,1,0-3.11,0A1.55,1.55,0,0,0,162.82,3.48Z"/><path class="logonautico-3" d="M165.68.16a.1.1,0,0,1,.1-.11h1.39a1.16,1.16,0,0,1,1.17,1.14,1.2,1.2,0,0,1-.8,1.1l.74,1.36a.1.1,0,0,1-.09.15h-.28a.08.08,0,0,1-.08,0l-.72-1.42h-1V3.7a.1.1,0,0,1-.1.1h-.21a.09.09,0,0,1-.1-.1ZM167.14,2a.78.78,0,0,0,.77-.78.78.78,0,0,0-.77-.76h-1V2Z"/><path class="logonautico-3" d="M169.33.16a.1.1,0,0,1,.1-.11h.21a.1.1,0,0,1,.1.11V3.7a.09.09,0,0,1-.1.1h-.21a.09.09,0,0,1-.1-.1Z"/><path class="logonautico-3" d="M170.94.1a.1.1,0,0,1,.11-.1h.13l2.42,3h0V.16a.1.1,0,0,1,.1-.11h.19a.11.11,0,0,1,.1.11v3.6a.11.11,0,0,1-.1.1h-.1L171.34.79h0V3.7a.1.1,0,0,1-.11.1h-.18a.1.1,0,0,1-.11-.1Z"/><path class="logonautico-3" d="M176.86,0a1.91,1.91,0,0,1,1.3.5.11.11,0,0,1,0,.15L178,.8s-.08,0-.14,0a1.63,1.63,0,0,0-1-.42,1.52,1.52,0,0,0-1.49,1.54,1.53,1.53,0,0,0,1.49,1.55,2.09,2.09,0,0,0,1-.22V2.49h-.62a.1.1,0,0,1-.1-.1v-.2a.09.09,0,0,1,.1-.1h.93a.11.11,0,0,1,.1.1V3.42a.14.14,0,0,1,0,.08,2.58,2.58,0,0,1-1.32.36,1.93,1.93,0,1,1,0-3.86Z"/><path class="logonautico-3" d="M180.28,3.24l.08-.1c.06-.07.12-.11.19-.05a1.51,1.51,0,0,0,.91.41.64.64,0,0,0,.71-.59c0-.37-.32-.59-.93-.85s-1-.5-1-1.11A1,1,0,0,1,181.43,0a1.77,1.77,0,0,1,.92.27.12.12,0,0,1,0,.19l-.06.1a.13.13,0,0,1-.19,0,1.39,1.39,0,0,0-.7-.25c-.57,0-.74.36-.74.59s.27.57.72.75c.73.3,1.19.57,1.19,1.19a1.07,1.07,0,0,1-1.16,1,1.71,1.71,0,0,1-1.13-.44A.12.12,0,0,1,180.28,3.24Z"/><path class="logonautico-3" d="M183.49.16a.1.1,0,0,1,.1-.11h.21a.1.1,0,0,1,.1.11V3.7a.09.09,0,0,1-.1.1h-.21a.09.09,0,0,1-.1-.1Z"/><path class="logonautico-3" d="M185.1.1a.1.1,0,0,1,.11-.1h.13l2.42,3h0V.16a.1.1,0,0,1,.1-.11h.19a.11.11,0,0,1,.1.11v3.6a.11.11,0,0,1-.1.1H188L185.5.79h0V3.7a.1.1,0,0,1-.11.1h-.18a.1.1,0,0,1-.11-.1Z"/><path class="logonautico-3" d="M191,0a1.91,1.91,0,0,1,1.3.5.11.11,0,0,1,0,.15l-.14.14c-.05.06-.09,0-.14,0a1.64,1.64,0,0,0-1-.4,1.52,1.52,0,0,0-1.49,1.54A1.52,1.52,0,0,0,191,3.47a1.56,1.56,0,0,0,1-.41.11.11,0,0,1,.13,0l.16.14a.11.11,0,0,1,0,.15,1.84,1.84,0,0,1-1.3.52A1.93,1.93,0,1,1,191,0Z"/><path class="logonautico-3" d="M193.25.16a.11.11,0,0,1,.1-.11h2.12a.11.11,0,0,1,.1.11V.31a.11.11,0,0,1-.1.1h-1.8V1.72h1.53a.1.1,0,0,1,.1.1V2a.09.09,0,0,1-.1.1h-1.53V3.44h1.8a.11.11,0,0,1,.1.11V3.7a.1.1,0,0,1-.1.1h-2.12a.1.1,0,0,1-.1-.1Z"/><path class="logonautico-3" d="M198,1.14l-.47.1s-.11,0-.11-.07l0-.26a.1.1,0,0,1,0-.1l.77-.65h.38a.11.11,0,0,1,.1.1V3.7a.1.1,0,0,1-.1.1h-.46a.09.09,0,0,1-.1-.1Z"/><path class="logonautico-3" d="M200,3.34a1.92,1.92,0,0,0,1.18-1,1.38,1.38,0,0,1-.61.15,1.09,1.09,0,0,1-1.1-1.16A1.22,1.22,0,0,1,200.68.08,1.31,1.31,0,0,1,202,1.55a2.5,2.5,0,0,1-1.79,2.34.12.12,0,0,1-.15-.08l-.12-.31C199.87,3.43,199.9,3.38,200,3.34Zm1.32-1.87a.7.7,0,0,0-.63-.78.63.63,0,0,0,0,1.25A.66.66,0,0,0,201.32,1.47Z"/><path class="logonautico-3" d="M204.31,0a.11.11,0,0,1,.15.08l.12.31c0,.07,0,.13-.09.16a1.88,1.88,0,0,0-1.18,1,1.34,1.34,0,0,1,.61-.15A1.09,1.09,0,0,1,205,2.63a1.23,1.23,0,0,1-1.21,1.23,1.31,1.31,0,0,1-1.27-1.48A2.49,2.49,0,0,1,204.31,0Zm.1,2.58a.63.63,0,0,0-.62-.63.67.67,0,0,0-.62.47c0,.36.19.79.63.79A.63.63,0,0,0,204.41,2.62Z"/><path class="logonautico-3" d="M206,1.14l-.47.1a.09.09,0,0,1-.11-.07l0-.26a.1.1,0,0,1,0-.1l.78-.65h.37a.11.11,0,0,1,.1.1V3.7a.1.1,0,0,1-.1.1h-.46a.09.09,0,0,1-.1-.1Z"/></g></g></svg>