<svg xmlns="http://www.w3.org/2000/svg" xmlns:xlink="http://www.w3.org/1999/xlink" viewBox="0 0 205.29 62.99"><defs><style>.automovel-1{fill:url(#New_Gradient_Swatch_4);}.automovel-2{fill:#fff;}.automovel-3{fill:#474c4d;}</style><linearGradient id="New_Gradient_Swatch_4" x1="0.61" y1="28.61" x2="202.85" y2="28.61" gradientUnits="userSpaceOnUse"><stop offset="0" stop-color="#af2026"/><stop offset="1" stop-color="#dd402f"/></linearGradient></defs><g id="automovel_2" data-name="automovel 2"><g id="automovel_1" data-name="automovel 1"><path class="automovel-1" d="M172.34,8.68h32.94a0,0,0,0,1,0,0V41.75a6.79,6.79,0,0,1-6.79,6.79H165.56a0,0,0,0,1,0,0V15.47A6.79,6.79,0,0,1,172.34,8.68Z"/><path class="automovel-1" d="M131,8.68H163.9a0,0,0,0,1,0,0V41.75a6.79,6.79,0,0,1-6.79,6.79H124.18a0,0,0,0,1,0,0V15.47A6.79,6.79,0,0,1,131,8.68Z"/><path class="automovel-1" d="M89.58,8.68h32.94a0,0,0,0,1,0,0V41.75a6.79,6.79,0,0,1-6.79,6.79H82.8a0,0,0,0,1,0,0V15.47A6.79,6.79,0,0,1,89.58,8.68Z"/><path class="automovel-1" d="M48.18,8.68H81.12a0,0,0,0,1,0,0V41.75a6.79,6.79,0,0,1-6.79,6.79H41.4a0,0,0,0,1,0,0V15.47A6.79,6.79,0,0,1,48.18,8.68Z"/><path class="automovel-1" d="M6.79,8.68H39.73a0,0,0,0,1,0,0V41.75a6.79,6.79,0,0,1-6.79,6.79H0a0,0,0,0,1,0,0V15.47A6.79,6.79,0,0,1,6.79,8.68Z"/><path class="automovel-2" d="M193.83,16.49v0a3.72,3.72,0,0,1,3.72-3.71,3.68,3.68,0,0,1,3.7,3.69v0a3.71,3.71,0,0,1-7.42,0Zm7,0v0a3.32,3.32,0,1,0-6.64,0v0a3.32,3.32,0,1,0,6.64,0Zm-4.82-2h1.74a1.64,1.64,0,0,1,1.17.41,1.12,1.12,0,0,1,.32.82v0a1.15,1.15,0,0,1-.9,1.17l1,1.47h-.89L197.59,17h-.81v1.34H196Zm1.7,1.9c.49,0,.77-.24.77-.6v0c0-.39-.28-.61-.77-.61h-1v1.23Z"/><path class="automovel-2" d="M7.69,28.61V23.7A13.35,13.35,0,0,1,8,21.05,6.16,6.16,0,0,1,9.1,18.6a5.6,5.6,0,0,1,2.21-1.68,8.77,8.77,0,0,1,3.58-.63h16c.38,0,.66.23.85.69A4,4,0,0,1,32,18.53a4.06,4.06,0,0,1-.28,1.54c-.19.47-.47.7-.85.7H14.83a2.83,2.83,0,0,0-1.95.6,3,3,0,0,0-.68,2.27v1.43C8.45,26,7.69,28.61,7.69,28.61Zm0,5.48A13.82,13.82,0,0,1,8,31.15,6,6,0,0,1,9.1,28.7,5.53,5.53,0,0,1,11.31,27a8.77,8.77,0,0,1,3.58-.63h16c.38,0,.66.23.85.69a4.4,4.4,0,0,1,0,3.09c-.19.47-.47.7-.85.7H14.83a2.79,2.79,0,0,0-2,.63,3.18,3.18,0,0,0-.68,2.36l0,.36v5.58c0,.38-.23.66-.7.85a4.26,4.26,0,0,1-3.09,0c-.46-.19-.69-.47-.69-.85Z"/><path class="automovel-2" d="M47.31,28.65a17.07,17.07,0,0,1,.88-5.83,9.61,9.61,0,0,1,2.61-4,11,11,0,0,1,4.32-2.27,22.5,22.5,0,0,1,6-.73,23.5,23.5,0,0,1,6.1.73,11.84,11.84,0,0,1,4.51,2.27,9.57,9.57,0,0,1,2.79,4,15.85,15.85,0,0,1,1,5.83,15.85,15.85,0,0,1-1,5.83,9.51,9.51,0,0,1-2.79,3.94,11.8,11.8,0,0,1-4.51,2.24,23.55,23.55,0,0,1-6.1.71,22.55,22.55,0,0,1-6-.71,11,11,0,0,1-4.32-2.24,9.53,9.53,0,0,1-2.61-3.94A17.07,17.07,0,0,1,47.31,28.65Zm4.45,0a9.89,9.89,0,0,0,.64,3.78A6.53,6.53,0,0,0,54.25,35a7.72,7.72,0,0,0,2.94,1.5,14.86,14.86,0,0,0,4,.47,15.73,15.73,0,0,0,4-.47A8.59,8.59,0,0,0,68.27,35a6.55,6.55,0,0,0,2-2.58A9,9,0,0,0,71,28.65a9.12,9.12,0,0,0-.72-3.79,6.72,6.72,0,0,0-2-2.61,8.64,8.64,0,0,0-3.13-1.53,15.71,15.71,0,0,0-4-.49,14.82,14.82,0,0,0-4,.49,7.77,7.77,0,0,0-2.94,1.53,6.71,6.71,0,0,0-1.85,2.61A10.05,10.05,0,0,0,51.76,28.65Z"/><path class="automovel-2" d="M149.56,27.85,147.71,24a5.76,5.76,0,0,0-1.64-2.16,3,3,0,0,0-3.9,0A5.62,5.62,0,0,0,140.55,24l-7.68,16a1.73,1.73,0,0,1-1.15.84,6.24,6.24,0,0,1-1.83.27,7.55,7.55,0,0,1-.83,0,3.92,3.92,0,0,1-.73-.15,1.55,1.55,0,0,1-.53-.27.47.47,0,0,1-.21-.37.49.49,0,0,1,.06-.27L135.38,24a29.46,29.46,0,0,1,1.87-3.38,12.38,12.38,0,0,1,2-2.42,7,7,0,0,1,2.22-1.45,7.16,7.16,0,0,1,2.69-.48,7,7,0,0,1,2.63.48A7.34,7.34,0,0,1,149,18.22a12.54,12.54,0,0,1,2,2.4A30.44,30.44,0,0,1,152.85,24l2.85,5.9C153.69,27.49,149.56,27.85,149.56,27.85Zm.81,1.67A6.58,6.58,0,0,1,153,30a7.09,7.09,0,0,1,2.18,1.48,14.73,14.73,0,0,1,2,2.42,36.42,36.42,0,0,1,1.94,3.31l1.37,2.6a.49.49,0,0,1,.06.27.48.48,0,0,1-.2.37,1.7,1.7,0,0,1-.54.27,3.82,3.82,0,0,1-.75.15,7.65,7.65,0,0,1-.81,0,6.24,6.24,0,0,1-1.83-.27,1.73,1.73,0,0,1-1.15-.84l-1.29-2.57a8.12,8.12,0,0,0-1.61-2.34,2.75,2.75,0,0,0-1.94-.91h-10a.92.92,0,0,1-.85-.7,4.06,4.06,0,0,1-.29-1.54,4,4,0,0,1,.29-1.55.91.91,0,0,1,.85-.69Z"/><path class="automovel-2" d="M180.72,40.93a8.77,8.77,0,0,1-3.58-.63,5.46,5.46,0,0,1-2.21-1.69,6,6,0,0,1-1.11-2.45,13.82,13.82,0,0,1-.3-2.94V17.4a.9.9,0,0,1,.69-.84,4.2,4.2,0,0,1,1.55-.27,4.26,4.26,0,0,1,1.54.27c.47.18.7.46.7.84V33.46a3.23,3.23,0,0,0,.67,2.36,2.81,2.81,0,0,0,2,.63h15.53c.38,0,.66.23.85.7a4.4,4.4,0,0,1,0,3.09c-.19.46-.47.69-.85.69Z"/><path class="automovel-2" d="M91.83,28.61V23.7a13.35,13.35,0,0,1,.3-2.65,6.16,6.16,0,0,1,1.11-2.45,5.53,5.53,0,0,1,2.21-1.68A8.77,8.77,0,0,1,99,16.29h16a.93.93,0,0,1,.85.69,4,4,0,0,1,.28,1.55,4.06,4.06,0,0,1-.28,1.54c-.19.47-.48.7-.85.7H99a2.86,2.86,0,0,0-2,.6,3,3,0,0,0-.67,2.27v1.43C92.59,26,91.83,28.61,91.83,28.61Zm0,5.48a13.82,13.82,0,0,1,.3-2.94,6,6,0,0,1,1.11-2.45A5.46,5.46,0,0,1,95.45,27,8.77,8.77,0,0,1,99,26.38h16a.93.93,0,0,1,.85.69,4.4,4.4,0,0,1,0,3.09c-.19.47-.48.7-.85.7H99a2.77,2.77,0,0,0-2,.63,3.18,3.18,0,0,0-.68,2.36l0,.36v5.58c0,.38-.23.66-.7.85a4.26,4.26,0,0,1-3.09,0c-.46-.19-.69-.47-.69-.85Z"/><path class="automovel-3" d="M138.86,62l2.28-5.14a.9.9,0,0,1,.84-.57h.08a.89.89,0,0,1,.83.57L145.17,62a.68.68,0,0,1-.61,1,.73.73,0,0,1-.69-.49l-.44-1h-2.87l-.46,1.07a.7.7,0,0,1-.66.45.66.66,0,0,1-.66-.67A.75.75,0,0,1,138.86,62Zm4-1.81L142,58l-.91,2.15Z"/><path class="automovel-3" d="M146.69,60.08V57a.72.72,0,1,1,1.44,0v3c0,1.06.53,1.61,1.41,1.61s1.41-.53,1.41-1.56V57a.72.72,0,1,1,1.43,0v3A2.63,2.63,0,0,1,149.52,63,2.59,2.59,0,0,1,146.69,60.08Z"/><path class="automovel-3" d="M155.93,57.67h-1.38a.67.67,0,0,1,0-1.33h4.2a.67.67,0,0,1,0,1.33h-1.38v4.54a.72.72,0,1,1-1.44,0Z"/><path class="automovel-3" d="M160.45,59.63v0a3.47,3.47,0,0,1,6.94,0v0A3.38,3.38,0,0,1,163.91,63,3.34,3.34,0,0,1,160.45,59.63Zm5.44,0v0a2,2,0,0,0-2-2,2,2,0,0,0-2,2v0a2,2,0,0,0,2,2A2,2,0,0,0,165.89,59.63Z"/><path class="automovel-3" d="M169.23,57a.7.7,0,0,1,.72-.72h.15a.75.75,0,0,1,.66.37l1.73,2.83,1.75-2.84a.7.7,0,0,1,.64-.36H175a.71.71,0,0,1,.72.72v5.18a.72.72,0,1,1-1.43,0V59l-1.26,1.94a.67.67,0,0,1-1.19,0L170.64,59v3.25a.7.7,0,0,1-.71.7.7.7,0,0,1-.7-.7Z"/><path class="automovel-3" d="M177.6,59.63v0a3.47,3.47,0,0,1,6.94,0v0a3.47,3.47,0,0,1-6.94,0Zm5.44,0v0a2,2,0,0,0-2-2,2,2,0,0,0-2,2v0a2,2,0,0,0,2,2A2,2,0,0,0,183,59.63Zm-2.36-4.08a.48.48,0,0,1,.09-.25l.51-.8a.62.62,0,0,1,.54-.32c.34,0,.79.21.79.43a.46.46,0,0,1-.19.33l-.58.55a1,1,0,0,1-.81.3C180.83,55.79,180.68,55.7,180.68,55.55Z"/><path class="automovel-3" d="M187.89,62.41l-2.12-5.07a1,1,0,0,1-.08-.34.71.71,0,0,1,.72-.71.76.76,0,0,1,.73.5L188.77,61l1.65-4.27a.74.74,0,0,1,.69-.46.7.7,0,0,1,.71.69.84.84,0,0,1-.08.32l-2.13,5.11a.85.85,0,0,1-.81.57h-.1A.85.85,0,0,1,187.89,62.41Z"/><path class="automovel-3" d="M193.48,62.16v-5.1a.72.72,0,0,1,.72-.72h3.62a.65.65,0,0,1,.64.65.64.64,0,0,1-.64.63h-2.91V59h2.49a.64.64,0,0,1,.64.64.64.64,0,0,1-.64.64h-2.49V61.6h3a.64.64,0,0,1,.64.64.64.64,0,0,1-.64.64H194.2A.72.72,0,0,1,193.48,62.16Z"/><path class="automovel-3" d="M200.29,57a.72.72,0,0,1,1.44,0v4.56h2.66a.66.66,0,0,1,0,1.31H201a.72.72,0,0,1-.72-.72Z"/><path class="automovel-3" d="M126.12,0a1.9,1.9,0,0,1,1.28.49.11.11,0,0,1,0,.15l-.15.15s-.08,0-.14,0a1.58,1.58,0,0,0-1-.4,1.51,1.51,0,0,0-1.48,1.53,1.5,1.5,0,0,0,1.48,1.52,1.54,1.54,0,0,0,1-.39c.06,0,.1,0,.13,0l.16.14a.12.12,0,0,1,0,.15,1.84,1.84,0,0,1-1.29.51,1.91,1.91,0,1,1,0-3.82Z"/><path class="automovel-3" d="M130,0a1.91,1.91,0,0,1,1.91,1.92,1.91,1.91,0,0,1-3.82,0A1.91,1.91,0,0,1,130,0Zm0,3.45a1.55,1.55,0,0,0,1.54-1.53,1.54,1.54,0,1,0-3.08,0A1.54,1.54,0,0,0,130,3.45Z"/><path class="automovel-3" d="M132.25.19a.1.1,0,0,1,.09-.14h.21a.12.12,0,0,1,.1.06l1.32,3h0l1.32-3a.1.1,0,0,1,.09-.06h.21a.1.1,0,0,1,.09.14l-1.61,3.57a.1.1,0,0,1-.09.06H134a.09.09,0,0,1-.09-.06Z"/><path class="automovel-3" d="M136.39.15a.1.1,0,0,1,.1-.1h2.09a.1.1,0,0,1,.1.1V.31a.1.1,0,0,1-.1.1H136.8V1.7h1.52a.11.11,0,0,1,.1.1V2a.1.1,0,0,1-.1.1H136.8V3.41h1.78a.1.1,0,0,1,.1.1v.16a.1.1,0,0,1-.1.1h-2.09a.1.1,0,0,1-.1-.1Z"/><path class="automovel-3" d="M139.64.15a.1.1,0,0,1,.1-.1h1.37a1.14,1.14,0,0,1,1.16,1.13,1.19,1.19,0,0,1-.79,1.09l.73,1.35a.1.1,0,0,1-.09.15h-.27a.08.08,0,0,1-.08,0l-.71-1.41h-1V3.67a.11.11,0,0,1-.11.1h-.2a.1.1,0,0,1-.1-.1ZM141.09,2a.77.77,0,0,0,.76-.77.78.78,0,0,0-.76-.75h-1V2Z"/><path class="automovel-3" d="M145.17,1.78h0L145,1.64a1.07,1.07,0,0,1-.37-.78.87.87,0,0,1,.94-.86.83.83,0,0,1,.9.82c0,.47-.48.83-.79,1l.88.87a2.23,2.23,0,0,0,.21-.94c0-.12,0-.12.12-.12h.13c.11,0,.1.08.1.12A2.57,2.57,0,0,1,146.85,3l.5.51c.07.07.11.12,0,.25l-.06,0a.15.15,0,0,1-.23,0l-.45-.47a1.5,1.5,0,0,1-1.16.53,1,1,0,0,1-1-1A1.27,1.27,0,0,1,145.17,1.78Zm.3,1.71a1.16,1.16,0,0,0,.91-.45l-1-1a1.05,1.05,0,0,0-.6.84A.65.65,0,0,0,145.47,3.49Zm.66-2.66a.52.52,0,0,0-.55-.52.54.54,0,0,0-.56.56.85.85,0,0,0,.34.61l.12.11C145.72,1.45,146.13,1.21,146.13.83Z"/><path class="automovel-3" d="M149.46.15a.1.1,0,0,1,.1-.1h2.09a.11.11,0,0,1,.11.1V.31a.11.11,0,0,1-.11.1h-1.78V1.86h1.52a.11.11,0,0,1,.11.1v.16a.11.11,0,0,1-.11.1h-1.52V3.67a.11.11,0,0,1-.1.1h-.21a.1.1,0,0,1-.1-.1Z"/><path class="automovel-3" d="M152.59.15a.1.1,0,0,1,.1-.1h.21a.11.11,0,0,1,.1.1V3.41h1.53a.11.11,0,0,1,.1.1v.16a.11.11,0,0,1-.1.1h-1.84a.1.1,0,0,1-.1-.1Z"/><path class="automovel-3" d="M156.88,0a1.91,1.91,0,0,1,1.91,1.92,1.91,1.91,0,0,1-3.81,0A1.9,1.9,0,0,1,156.88,0Zm0,3.45a1.54,1.54,0,1,0-1.53-1.53A1.54,1.54,0,0,0,156.88,3.45Z"/><path class="automovel-3" d="M161.35,0a1.91,1.91,0,0,1,1.91,1.92,1.91,1.91,0,0,1-3.82,0A1.91,1.91,0,0,1,161.35,0Zm0,3.45a1.55,1.55,0,0,0,1.54-1.53,1.54,1.54,0,1,0-3.08,0A1.54,1.54,0,0,0,161.35,3.45Z"/><path class="automovel-3" d="M164.18.15a.1.1,0,0,1,.1-.1h1.37a1.14,1.14,0,0,1,1.16,1.13A1.19,1.19,0,0,1,166,2.27l.73,1.35a.1.1,0,0,1-.09.15h-.27a.08.08,0,0,1-.08,0l-.71-1.41h-1V3.67a.11.11,0,0,1-.1.1h-.21a.1.1,0,0,1-.1-.1ZM165.63,2a.77.77,0,0,0,.76-.77.78.78,0,0,0-.76-.75h-1V2Z"/><path class="automovel-3" d="M167.79.15a.11.11,0,0,1,.1-.1h.22a.11.11,0,0,1,.1.1V3.67a.11.11,0,0,1-.1.1h-.22a.11.11,0,0,1-.1-.1Z"/><path class="automovel-3" d="M169.4.1a.09.09,0,0,1,.1-.1h.13L172,3h0V.15a.11.11,0,0,1,.1-.1h.19a.11.11,0,0,1,.1.1V3.73a.1.1,0,0,1-.1.09h-.1l-2.43-3h0V3.67a.1.1,0,0,1-.1.1h-.18a.1.1,0,0,1-.1-.1Z"/><path class="automovel-3" d="M175.26,0a1.9,1.9,0,0,1,1.28.49.11.11,0,0,1,0,.15c-.05,0-.11.1-.15.15s-.08,0-.14,0a1.6,1.6,0,0,0-1-.42,1.5,1.5,0,0,0-1.48,1.53,1.51,1.51,0,0,0,1.48,1.53,2.07,2.07,0,0,0,1-.22V2.46h-.61a.1.1,0,0,1-.11-.09v-.2a.1.1,0,0,1,.11-.1h.91a.1.1,0,0,1,.1.1V3.39a.12.12,0,0,1,0,.08,2.61,2.61,0,0,1-1.31.35,1.91,1.91,0,1,1,0-3.82Z"/><path class="automovel-3" d="M178.65,3.21l.08-.1c.05-.07.11-.11.18,0a1.5,1.5,0,0,0,.9.41.64.64,0,0,0,.71-.59c0-.36-.32-.58-.93-.84s-.93-.49-.93-1.1A1,1,0,0,1,179.79,0a1.75,1.75,0,0,1,.91.27.12.12,0,0,1,0,.18l-.06.1a.12.12,0,0,1-.19,0,1.52,1.52,0,0,0-.7-.24c-.56,0-.73.36-.73.58s.27.56.72.75c.71.29,1.18.56,1.18,1.18a1.06,1.06,0,0,1-1.15.95,1.69,1.69,0,0,1-1.12-.43S178.58,3.31,178.65,3.21Z"/><path class="automovel-3" d="M181.82.15a.11.11,0,0,1,.1-.1h.22a.11.11,0,0,1,.1.1V3.67a.11.11,0,0,1-.1.1h-.22a.11.11,0,0,1-.1-.1Z"/><path class="automovel-3" d="M183.43.1a.09.09,0,0,1,.1-.1h.13l2.39,3h0V.15a.11.11,0,0,1,.1-.1h.19a.11.11,0,0,1,.1.1V3.73a.1.1,0,0,1-.1.09h-.1l-2.43-3h0V3.67a.1.1,0,0,1-.1.1h-.18a.1.1,0,0,1-.1-.1Z"/><path class="automovel-3" d="M189.29,0a1.9,1.9,0,0,1,1.28.49.11.11,0,0,1,0,.15l-.15.15s-.08,0-.14,0a1.58,1.58,0,0,0-1-.4,1.51,1.51,0,0,0-1.48,1.53,1.5,1.5,0,0,0,1.48,1.52,1.54,1.54,0,0,0,1-.39c.06,0,.1,0,.13,0l.16.14a.12.12,0,0,1,0,.15,1.84,1.84,0,0,1-1.29.51,1.91,1.91,0,1,1,0-3.82Z"/><path class="automovel-3" d="M191.5.15a.1.1,0,0,1,.1-.1h2.09a.1.1,0,0,1,.1.1V.31a.1.1,0,0,1-.1.1h-1.78V1.7h1.52a.11.11,0,0,1,.1.1V2a.1.1,0,0,1-.1.1h-1.52V3.41h1.78a.1.1,0,0,1,.1.1v.16a.1.1,0,0,1-.1.1H191.6a.1.1,0,0,1-.1-.1Z"/><path class="automovel-3" d="M196.24,1.13l-.47.1a.08.08,0,0,1-.1-.07l0-.26a.13.13,0,0,1,0-.1l.77-.64h.37a.1.1,0,0,1,.09.1V3.67a.1.1,0,0,1-.09.1h-.46a.1.1,0,0,1-.1-.1Z"/><path class="automovel-3" d="M198.18,3.31c.25-.08,1-.43,1.17-1a1.34,1.34,0,0,1-.61.15,1.08,1.08,0,0,1-1.08-1.15,1.22,1.22,0,0,1,1.2-1.22c.84,0,1.26.67,1.26,1.47a2.46,2.46,0,0,1-1.76,2.31.1.1,0,0,1-.15-.07l-.12-.31C198.06,3.4,198.08,3.34,198.18,3.31Zm1.31-1.85c0-.36-.19-.78-.62-.78a.62.62,0,0,0-.61.62.61.61,0,0,0,.61.62A.66.66,0,0,0,199.49,1.46Z"/><path class="automovel-3" d="M202.46,0a.1.1,0,0,1,.14.08l.13.31c0,.06,0,.12-.1.15a1.92,1.92,0,0,0-1.17,1,1.49,1.49,0,0,1,.61-.15,1.09,1.09,0,0,1,1.08,1.16A1.21,1.21,0,0,1,202,3.82a1.3,1.3,0,0,1-1.26-1.46A2.48,2.48,0,0,1,202.46,0Zm.09,2.56a.62.62,0,0,0-.61-.63.65.65,0,0,0-.61.47c0,.36.19.78.62.78A.62.62,0,0,0,202.55,2.6Z"/><path class="automovel-3" d="M204.14,1.13l-.47.1a.08.08,0,0,1-.1-.07l0-.26a.13.13,0,0,1,0-.1l.76-.64h.38a.1.1,0,0,1,.09.1V3.67a.1.1,0,0,1-.09.1h-.46a.1.1,0,0,1-.1-.1Z"/></g></g></svg>