<svg xmlns="http://www.w3.org/2000/svg" viewBox="0 0 48.44 48.35"><defs><style>.atend-custom-1{fill:#444;}</style></defs><g id="atend-custom_2" data-name="atend-custom 2"><g id="atend-custom_1" data-name="atend-custom 1"><path class="atend-custom-1" d="M26.59,29.64a2.42,2.42,0,0,1,2.93-.24,3.85,3.85,0,0,1,.92.84,1.06,1.06,0,0,0,.92.38c.82,0,1.64,0,2.48,0V27.4c-.56-.16-1.13-.27-1.68-.47A7,7,0,0,1,28,23a.69.69,0,0,0-.78-.48H2.57a2.42,2.42,0,0,1-.29-4.83h25a.69.69,0,0,0,.77-.49,7,7,0,0,1,6.64-4.32,7,7,0,0,1,6.63,4.34.68.68,0,0,0,.74.48c1.26,0,2.52,0,3.78,0a2.42,2.42,0,1,1,0,4.83c-1.26,0-2.52,0-3.78,0a.64.64,0,0,0-.74.47,6.31,6.31,0,0,1-2.08,2.73,1.15,1.15,0,0,0-.53,1.18,5.23,5.23,0,0,1,0,.56,2.51,2.51,0,0,1,3.14,1.62c1.8-.23,2.38.06,3.2,1.54a8.39,8.39,0,0,1,1.33,0,2.38,2.38,0,0,1,2,2.32,60.1,60.1,0,0,1,0,6.44c-.22,2.18-.51,4.43-2,6.23a7.06,7.06,0,0,1-5.52,2.68,19.37,19.37,0,0,1-4-.19A7,7,0,0,1,31.16,42a8.7,8.7,0,0,0-1.46-4c-.79-1.13-1.55-2.3-2.38-3.54-.08.24-.12.37-.16.51a7.24,7.24,0,0,1-13.67.92.58.58,0,0,0-.63-.41c-3.48,0-6.95,0-10.43,0A2.4,2.4,0,0,1,.13,33.8,2.29,2.29,0,0,1,1,31.12a3.18,3.18,0,0,1,1.59-.48c3.42-.05,6.85,0,10.27,0,.29,0,.48,0,.62-.35a7,7,0,0,1,6.2-4.46,7,7,0,0,1,6.77,3.61l.15.22m8.89-1.44v6.24c0,.58-.22,1-.66,1-.86.07-1.77.19-2.34-.72a3.19,3.19,0,0,0-.31-.33L28.94,31a.84.84,0,0,0-1-.28.81.81,0,0,0-.52.84,1.78,1.78,0,0,0,.29.73Q29,34.15,30.36,36a12.61,12.61,0,0,1,2.46,6,5.34,5.34,0,0,0,4.68,4.61,24.36,24.36,0,0,0,3.31.09,5.51,5.51,0,0,0,5.1-3.62,15,15,0,0,0,.81-3.78c.14-2.07.05-4.16,0-6.24a.8.8,0,1,0-1.6,0c0,.47,0,.94,0,1.41s-.32,1-.8,1-.81-.36-.81-1c0-1,0-1.92,0-2.87,0-.64-.31-1-.81-1s-.8.37-.8,1c0,1,0,1.95,0,2.92a.81.81,0,1,1-1.6,0c0-.73,0-1.45,0-2.17s0-1.71,0-2.57a.8.8,0,1,0-1.6,0c0,.13,0,.27,0,.4v4.34c0,.43-.18.8-.61.85a1.1,1.1,0,0,1-.82-.31c-.16-.15-.17-.49-.18-.75,0-3.59,0-7.18,0-10.78,0-.58,0-1.17,0-1.76a.8.8,0,0,0-.95-.84.83.83,0,0,0-.65.94v6.3M20.12,38.67A5.64,5.64,0,1,0,14.52,33a5.66,5.66,0,0,0,5.6,5.68m7.29-19.34H2.78a3.34,3.34,0,0,0-.45,0,.8.8,0,0,0,0,1.59,2.24,2.24,0,0,0,.45,0H27.41Zm6.44,4.77-.51-.16a4,4,0,1,1,5.36-3.78V24a5.51,5.51,0,0,0,.8-6.75,5.64,5.64,0,0,0-10.35,4.07c.49,2.3,2.78,4.42,4.7,4.33Zm-21,9.74V32.25l-.36,0H2.61a1.37,1.37,0,0,0-.35,0,.77.77,0,0,0-.63.75.75.75,0,0,0,.56.79,1.71,1.71,0,0,0,.55.05H12.9Zm21-11.48A2.7,2.7,0,0,1,34.61,20a2.49,2.49,0,0,1,2.32-.62,2.36,2.36,0,0,0-2.5-1.66,2.44,2.44,0,0,0-2.16,2.12,2.34,2.34,0,0,0,1.61,2.51m8-1.43c1.38,0,2.75,0,4.12,0a.72.72,0,0,0,.7-.79.77.77,0,0,0-.75-.79c-.45,0-.9,0-1.36,0H41.93ZM32.36,32.24l1.46,1.53V32.24Z"/><path class="atend-custom-1" d="M31.88,9.66H17.82a.64.64,0,0,0-.69.46,7,7,0,0,1-6.67,4.36,7,7,0,0,1-6.62-4.36c-.16-.34-.31-.48-.7-.46a4.64,4.64,0,0,1-1.34-.1A2.37,2.37,0,0,1,0,7,2.29,2.29,0,0,1,2.27,4.86a1.85,1.85,0,0,0,2-1.22A6.79,6.79,0,0,1,10.94,0a6.94,6.94,0,0,1,6.18,4.33.68.68,0,0,0,.73.48H45.76a2.44,2.44,0,0,1,2.61,2.31,2.41,2.41,0,0,1-2.43,2.52c-2.42,0-4.84,0-7.26,0h-6.8M16.13,7.21a5.64,5.64,0,1,0-5.62,5.67,5.66,5.66,0,0,0,5.62-5.67M17.74,8H45.6a2.24,2.24,0,0,0,.45,0,.76.76,0,0,0,.7-.79.75.75,0,0,0-.7-.79,2.26,2.26,0,0,0-.45,0H17.74ZM3.23,6.43c-.56.05-1.17-.19-1.48.42a1,1,0,0,0,0,.84c.34.53.91.33,1.44.33Z"/><path class="atend-custom-1" d="M24.19,33.05a4,4,0,1,1-4-4,4,4,0,0,1,4,4m-1.61,0a2.42,2.42,0,1,0-2.43,2.43A2.42,2.42,0,0,0,22.58,33"/><path class="atend-custom-1" d="M14.52,7.25a4,4,0,1,1-4-4,4,4,0,0,1,4,4m-1.62,0a2.42,2.42,0,1,0-2.42,2.43A2.43,2.43,0,0,0,12.9,7.22"/></g></g></svg>