<svg xmlns="http://www.w3.org/2000/svg" viewBox="0 0 59.97 52.07"><defs><style>.specialists-1{fill:none;stroke:#444;stroke-linecap:round;stroke-linejoin:round;stroke-width:2px;}</style></defs><g id="specialists_2" data-name="specialists 2"><g id="specialists_1" data-name="specialists 1"><path class="specialists-1" d="M37.44,2.63,36.88,1H35.07l-.58,1.61-1.32.53L31.63,2.4,30.34,3.66l.73,1.55c-.22.53-.33.79-.56,1.31l-1.61.56,0,1.81,1.61.58c.22.53.32.8.54,1.32l-.75,1.54,1.26,1.29,1.56-.73,1.31.56L35,15.06l1.8,0,.59-1.61,1.31-.54,1.54.75,1.29-1.26-.73-1.56c.23-.52.34-.78.56-1.31L43,9c0-.9,0-.9,0-1.8L41.35,6.6l-.53-1.31.74-1.54L40.3,2.46l-1.55.72Zm.82,7.75a3.31,3.31,0,1,1,0-4.68A3.3,3.3,0,0,1,38.26,10.38Z"/><path class="specialists-1" d="M56.88,18.81,59,17c-.56-1.36-.56-1.37-1.11-2.73l-2.79.12-1.63-1.64.17-2.8L50.9,8.77,49,10.83l-2.31,0L44.84,8.72,42.12,9.83l.12,2.79-1.65,1.63-2.79-.17c-.57,1.35-.57,1.36-1.15,2.71l2.06,1.89c0,.92,0,1.39,0,2.31l-2.09,1.86,1.1,2.72,2.79-.12,1.63,1.65L42,29.89,44.67,31,46.56,29l2.32,0,1.85,2.09L53.46,30l-.13-2.79L55,25.56l2.8.16L58.92,23l-2.06-1.89C56.86,20.21,56.87,19.74,56.88,18.81Zm-7,6.09a5.41,5.41,0,1,1,2.93-7.06A5.42,5.42,0,0,1,49.85,24.9Z"/><path class="specialists-1" d="M29,44.94l4.41,2.14,3.67-3.62L35,39l1.58-3.74,4.63-1.6,0-5.16-4.6-1.67-1.53-3.76,2.14-4.41L33.63,15l-4.44,2.07L25.45,15.5l-1.6-4.63-5.16,0L17,15.43,13.26,17,8.85,14.82,5.18,18.44l2.07,4.44L5.67,26.61,1,28.22l0,5.15,4.6,1.68,1.53,3.76L5,43.22l3.62,3.67,4.44-2.07,3.74,1.58L18.39,51l5.15,0,1.68-4.6Zm-7.86-4.52A9.47,9.47,0,1,1,30.59,31,9.47,9.47,0,0,1,21.12,40.42Z"/></g></g></svg>